G04 #@! TF.GenerationSoftware,KiCad,Pcbnew,(6.0.11-0)*
G04 #@! TF.CreationDate,2023-10-02T19:13:40+09:00*
G04 #@! TF.ProjectId,clavis,636c6176-6973-42e6-9b69-6361645f7063,rev?*
G04 #@! TF.SameCoordinates,Original*
G04 #@! TF.FileFunction,Copper,L2,Bot*
G04 #@! TF.FilePolarity,Positive*
%FSLAX46Y46*%
G04 Gerber Fmt 4.6, Leading zero omitted, Abs format (unit mm)*
G04 Created by KiCad (PCBNEW (6.0.11-0)) date 2023-10-02 19:13:40*
%MOMM*%
%LPD*%
G01*
G04 APERTURE LIST*
G04 Aperture macros list*
%AMRoundRect*
0 Rectangle with rounded corners*
0 $1 Rounding radius*
0 $2 $3 $4 $5 $6 $7 $8 $9 X,Y pos of 4 corners*
0 Add a 4 corners polygon primitive as box body*
4,1,4,$2,$3,$4,$5,$6,$7,$8,$9,$2,$3,0*
0 Add four circle primitives for the rounded corners*
1,1,$1+$1,$2,$3*
1,1,$1+$1,$4,$5*
1,1,$1+$1,$6,$7*
1,1,$1+$1,$8,$9*
0 Add four rect primitives between the rounded corners*
20,1,$1+$1,$2,$3,$4,$5,0*
20,1,$1+$1,$4,$5,$6,$7,0*
20,1,$1+$1,$6,$7,$8,$9,0*
20,1,$1+$1,$8,$9,$2,$3,0*%
%AMFreePoly0*
4,1,22,1.150000,1.217000,1.242000,1.125000,1.275000,1.000000,1.275000,-0.378000,1.255000,-0.477000,1.196000,-0.560000,1.110000,-0.613000,0.807000,-0.752000,0.530000,-0.939000,0.287000,-1.167000,0.203000,-1.228000,0.102000,-1.250000,-1.025000,-1.250000,-1.150000,-1.217000,-1.242000,-1.125000,-1.275000,-1.000000,-1.275000,1.000000,-1.242000,1.125000,-1.150000,1.217000,-1.025000,1.250000,
1.025000,1.250000,1.150000,1.217000,1.150000,1.217000,$1*%
G04 Aperture macros list end*
G04 #@! TA.AperFunction,SMDPad,CuDef*
%ADD10R,3.300000X3.000000*%
G04 #@! TD*
G04 #@! TA.AperFunction,ComponentPad*
%ADD11C,2.800000*%
G04 #@! TD*
G04 #@! TA.AperFunction,SMDPad,CuDef*
%ADD12R,1.300000X0.950000*%
G04 #@! TD*
G04 #@! TA.AperFunction,ComponentPad*
%ADD13O,1.500000X1.500000*%
G04 #@! TD*
G04 #@! TA.AperFunction,ComponentPad*
%ADD14O,1.600000X1.300000*%
G04 #@! TD*
G04 #@! TA.AperFunction,SMDPad,CuDef*
%ADD15RoundRect,0.249600X-0.550400X-1.300400X0.550400X-1.300400X0.550400X1.300400X-0.550400X1.300400X0*%
G04 #@! TD*
G04 #@! TA.AperFunction,ComponentPad*
%ADD16C,3.100000*%
G04 #@! TD*
G04 #@! TA.AperFunction,SMDPad,CuDef*
%ADD17RoundRect,0.249600X-0.550400X-0.900400X0.550400X-0.900400X0.550400X0.900400X-0.550400X0.900400X0*%
G04 #@! TD*
G04 #@! TA.AperFunction,SMDPad,CuDef*
%ADD18RoundRect,0.250000X-1.025000X-1.000000X1.025000X-1.000000X1.025000X1.000000X-1.025000X1.000000X0*%
G04 #@! TD*
G04 #@! TA.AperFunction,SMDPad,CuDef*
%ADD19FreePoly0,0.000000*%
G04 #@! TD*
G04 #@! TA.AperFunction,ComponentPad*
%ADD20C,2.000000*%
G04 #@! TD*
G04 #@! TA.AperFunction,ComponentPad*
%ADD21C,1.524000*%
G04 #@! TD*
G04 #@! TA.AperFunction,ViaPad*
%ADD22C,0.800000*%
G04 #@! TD*
G04 #@! TA.AperFunction,Conductor*
%ADD23C,0.250000*%
G04 #@! TD*
G04 #@! TA.AperFunction,Conductor*
%ADD24C,0.500000*%
G04 #@! TD*
G04 APERTURE END LIST*
D10*
X42556300Y-66476200D03*
X56156300Y-63936200D03*
X61606300Y-28376200D03*
X75206300Y-25836200D03*
X21125000Y-66476200D03*
X34725000Y-63936200D03*
D11*
X22383800Y-47466200D03*
X28733800Y-44926200D03*
D10*
X25887500Y-85526200D03*
X39487500Y-82986200D03*
X66368800Y-104576200D03*
X79968800Y-102036200D03*
X52081300Y-85526200D03*
X65681300Y-82986200D03*
X56843800Y-47426200D03*
X70443800Y-44886200D03*
X80656300Y-28376200D03*
X94256300Y-25836200D03*
X61606300Y-66476200D03*
X75206300Y-63936200D03*
X71131300Y-85526200D03*
X84731300Y-82986200D03*
X75893800Y-47426200D03*
X89493800Y-44886200D03*
X90181300Y-85526200D03*
X103781300Y-82986200D03*
X99706300Y-28376200D03*
X113306300Y-25836200D03*
X80656300Y-66476200D03*
X94256300Y-63936200D03*
X94943800Y-47426200D03*
X108543800Y-44886200D03*
X118756300Y-28376200D03*
X132356300Y-25836200D03*
X147331300Y-85526200D03*
X160931300Y-82986200D03*
X99706300Y-66476200D03*
X113306300Y-63936200D03*
X113993800Y-47426200D03*
X127593800Y-44886200D03*
X128281300Y-85526200D03*
X141881300Y-82986200D03*
X147331300Y-47426200D03*
X160931300Y-44886200D03*
X147331300Y-66476200D03*
X160931300Y-63936200D03*
X109231300Y-85526200D03*
X122831300Y-82986200D03*
X118756300Y-66476200D03*
X132356300Y-63936200D03*
X185431300Y-66476200D03*
X199031300Y-63936200D03*
X166381300Y-85526200D03*
X179981300Y-82986200D03*
X233056300Y-28376200D03*
X246656300Y-25836200D03*
X252106300Y-66476200D03*
X265706300Y-63936200D03*
X166381300Y-66476200D03*
X179981300Y-63936200D03*
X271156300Y-28376200D03*
X284756300Y-25836200D03*
X185431300Y-85526200D03*
X199031300Y-82986200D03*
X166381300Y-47426200D03*
X179981300Y-44886200D03*
X261631300Y-85526200D03*
X275231300Y-82986200D03*
X185431300Y-47426200D03*
X199031300Y-44886200D03*
X304493800Y-85526200D03*
X318093800Y-82986200D03*
X266393800Y-47426200D03*
X279993800Y-44886200D03*
X290206300Y-28376200D03*
X303806300Y-25836200D03*
X271156300Y-66476200D03*
X284756300Y-63936200D03*
X280681300Y-85526200D03*
X294281300Y-82986200D03*
D11*
X312896300Y-66516200D03*
X319246300Y-63976200D03*
D10*
X290206300Y-66476200D03*
X303806300Y-63936200D03*
X285443800Y-47426200D03*
X299043800Y-44886200D03*
X247343800Y-47426200D03*
X260943800Y-44886200D03*
X204481300Y-85526200D03*
X218081300Y-82986200D03*
X306875000Y-47426250D03*
X320475000Y-44886250D03*
X147331300Y-104576200D03*
X160931300Y-102036200D03*
X166381300Y-104576200D03*
X179981300Y-102036200D03*
X185431300Y-104576200D03*
X199031300Y-102036200D03*
D12*
X81568800Y-54768700D03*
X85118800Y-54768700D03*
X105381300Y-35718700D03*
X108931300Y-35718700D03*
X114906300Y-92868700D03*
X118456300Y-92868700D03*
X119668800Y-54768700D03*
X123218800Y-54768700D03*
X280381300Y-73818700D03*
X276831300Y-73818700D03*
X313718800Y-92868700D03*
X310168800Y-92868700D03*
X95856300Y-92868700D03*
X99406300Y-92868700D03*
X172056300Y-92868700D03*
X175606300Y-92868700D03*
X124431300Y-35718700D03*
X127981300Y-35718700D03*
D11*
X22383800Y-28416200D03*
X28733800Y-25876200D03*
D12*
X148243800Y-32858000D03*
X151793800Y-32858000D03*
D10*
X252106300Y-28376200D03*
X265706300Y-25836200D03*
D13*
X211364000Y-20140200D03*
X213864000Y-20140200D03*
X208864000Y-20140200D03*
D12*
X86331300Y-73818700D03*
X89881300Y-73818700D03*
X26800000Y-73818700D03*
X30350000Y-73818700D03*
X31562500Y-92868700D03*
X35112500Y-92868700D03*
X270856300Y-92868700D03*
X267306300Y-92868700D03*
X194656300Y-92868700D03*
X191106300Y-92868700D03*
X100618800Y-54768700D03*
X104168800Y-54768700D03*
X172056300Y-111918700D03*
X175606300Y-111918700D03*
D10*
X242581300Y-85526200D03*
X256181300Y-82986200D03*
D12*
X242281300Y-73818700D03*
X238731300Y-73818700D03*
D10*
X223531300Y-85526200D03*
X237131300Y-82986200D03*
D12*
X122050000Y-111918700D03*
X125600000Y-111918700D03*
X237518800Y-54768700D03*
X233968800Y-54768700D03*
X218468800Y-54768700D03*
X214918800Y-54768700D03*
D14*
X200143800Y-21075000D03*
X195143800Y-21075000D03*
X197643800Y-21075000D03*
D15*
X203993800Y-28575000D03*
D16*
X203193800Y-28575000D03*
X192093800Y-28575000D03*
D17*
X191293800Y-28975000D03*
D14*
X200143800Y-35575000D03*
D18*
X203733800Y-23495000D03*
D14*
X195143800Y-35575000D03*
D19*
X190283800Y-26035000D03*
D12*
X67281300Y-35718700D03*
X70831300Y-35718700D03*
X280381300Y-35718700D03*
X276831300Y-35718700D03*
D10*
X42556300Y-28376200D03*
X56156300Y-25836200D03*
D12*
X299431300Y-35718700D03*
X295881300Y-35718700D03*
D14*
X152518800Y-21075000D03*
X147518800Y-21075000D03*
X150018800Y-21075000D03*
D17*
X143668800Y-28975000D03*
D16*
X144468800Y-28575000D03*
D15*
X156368800Y-28575000D03*
D16*
X155568800Y-28575000D03*
D14*
X152518800Y-35575000D03*
D18*
X156108800Y-23495000D03*
D14*
X147518800Y-35575000D03*
D19*
X142658800Y-26035000D03*
D12*
X175606300Y-32846700D03*
X172056300Y-32846700D03*
D10*
X266393800Y-104576200D03*
X279993800Y-102036200D03*
D12*
X275618800Y-111918700D03*
X272068800Y-111918700D03*
X175606300Y-73818700D03*
X172056300Y-73818700D03*
X105381300Y-73818700D03*
X108931300Y-73818700D03*
D10*
X214006300Y-28376200D03*
X227606300Y-25836200D03*
D12*
X261331300Y-73818700D03*
X257781300Y-73818700D03*
X153006300Y-111918700D03*
X156556300Y-111918700D03*
X62518800Y-54768700D03*
X66068800Y-54768700D03*
D11*
X312896300Y-28416200D03*
X319246300Y-25876200D03*
D12*
X261331300Y-35718700D03*
X257781300Y-35718700D03*
X26800000Y-111918700D03*
X30350000Y-111918700D03*
X124431300Y-73818700D03*
X127981300Y-73818700D03*
X256568800Y-54768700D03*
X253018800Y-54768700D03*
X133956300Y-92868700D03*
X137506300Y-92868700D03*
X318481300Y-73818700D03*
X314931300Y-73818700D03*
D10*
X216387500Y-104576200D03*
X229987500Y-102036200D03*
D12*
X251806300Y-92868700D03*
X248256300Y-92868700D03*
X57756300Y-92868700D03*
X61306300Y-92868700D03*
X294668800Y-54768700D03*
X291118800Y-54768700D03*
X43468800Y-54768700D03*
X47018800Y-54768700D03*
D10*
X233056300Y-66476200D03*
X246656300Y-63936200D03*
D12*
X289906300Y-92868700D03*
X286356300Y-92868700D03*
D20*
X140958100Y-20488700D03*
X134458100Y-20488700D03*
D10*
X209243800Y-47426200D03*
X222843800Y-44886200D03*
D12*
X194656300Y-73818700D03*
X191106300Y-73818700D03*
X299431300Y-73818700D03*
X295881300Y-73818700D03*
X199418800Y-32860000D03*
X195868800Y-32860000D03*
X223231300Y-73818700D03*
X219681300Y-73818700D03*
X194656300Y-54768700D03*
X191106300Y-54768700D03*
X153006300Y-73818700D03*
X156556300Y-73818700D03*
D10*
X244962500Y-104576200D03*
X258562500Y-102036200D03*
D12*
X48231300Y-73818700D03*
X51781300Y-73818700D03*
X24418800Y-54768700D03*
X27968800Y-54768700D03*
X225612500Y-111918700D03*
X222062500Y-111918700D03*
X72043800Y-111918700D03*
X75593800Y-111918700D03*
X223231300Y-35718700D03*
X219681300Y-35718700D03*
X318481300Y-35718700D03*
X314931300Y-35718700D03*
X93475000Y-111918700D03*
X97025000Y-111918700D03*
X67281300Y-73818700D03*
X70831300Y-73818700D03*
X86331300Y-35718700D03*
X89881300Y-35718700D03*
D10*
X37793800Y-47426200D03*
X51393800Y-44886200D03*
D12*
X316100000Y-54768700D03*
X312550000Y-54768700D03*
X175606300Y-54768700D03*
X172056300Y-54768700D03*
D10*
X214006300Y-66476200D03*
X227606300Y-63936200D03*
D12*
X194656300Y-111918700D03*
X191106300Y-111918700D03*
X213706300Y-92868700D03*
X210156300Y-92868700D03*
D10*
X228293800Y-47426200D03*
X241893800Y-44886200D03*
D12*
X254187500Y-111918700D03*
X250637500Y-111918700D03*
D10*
X116375000Y-104576200D03*
X129975000Y-102036200D03*
D12*
X76806300Y-92868700D03*
X80356300Y-92868700D03*
X232756300Y-92868700D03*
X229206300Y-92868700D03*
D21*
X52464000Y-21721500D03*
X49924000Y-21721500D03*
X47384000Y-21721500D03*
X44844000Y-21721500D03*
X42304000Y-21721500D03*
X39764000Y-21721500D03*
X37224000Y-21721500D03*
X34684000Y-21721500D03*
X32144000Y-21721500D03*
X29604000Y-21721500D03*
X27064000Y-21721500D03*
X24524000Y-21721500D03*
X24524000Y-36941500D03*
X27064000Y-36941500D03*
X29604000Y-36941500D03*
X32144000Y-36941500D03*
X34684000Y-36941500D03*
X37224000Y-36941500D03*
X39764000Y-36941500D03*
X42304000Y-36941500D03*
X44844000Y-36941500D03*
X47384000Y-36941500D03*
X49924000Y-36941500D03*
X52464000Y-36941500D03*
X55004000Y-36941500D03*
X55004000Y-21721500D03*
D12*
X242281300Y-35718700D03*
X238731300Y-35718700D03*
X153006300Y-92868700D03*
X156556300Y-92868700D03*
X275618800Y-54768700D03*
X272068800Y-54768700D03*
X153006300Y-54768700D03*
X156556300Y-54768700D03*
D10*
X87800000Y-104576200D03*
X101400000Y-102036200D03*
X21125000Y-104576200D03*
X34725000Y-102036200D03*
D14*
X176331300Y-21075000D03*
X171331300Y-21075000D03*
X173831300Y-21075000D03*
D15*
X180181300Y-28575000D03*
D16*
X168281300Y-28575000D03*
D17*
X167481300Y-28975000D03*
D16*
X179381300Y-28575000D03*
D18*
X179921300Y-23495000D03*
D14*
X176331300Y-35575000D03*
X171331300Y-35575000D03*
D19*
X166471300Y-26035000D03*
D12*
X28830800Y-34347300D03*
X32380800Y-34347300D03*
X44077400Y-34218700D03*
X47627400Y-34218700D03*
D22*
X117770968Y-33283614D03*
X214312500Y-35718750D03*
X192726714Y-34130000D03*
X311740041Y-37017984D03*
X64699110Y-32730774D03*
X252873429Y-37149392D03*
X234924814Y-35713818D03*
X145844448Y-30992373D03*
X168135969Y-30992373D03*
X149177408Y-56934379D03*
X116072073Y-56924025D03*
X211118512Y-56926008D03*
X244255540Y-56922696D03*
X43477378Y-56892234D03*
X309468603Y-56916066D03*
X58619151Y-56907671D03*
X187134069Y-56933134D03*
X91393387Y-56916420D03*
X272607380Y-73818700D03*
X186908171Y-75832703D03*
X101552739Y-73824753D03*
X44009784Y-76045706D03*
X64335271Y-76055318D03*
X83051879Y-76054452D03*
X215180800Y-73838138D03*
X148809400Y-73817387D03*
X254832476Y-73813331D03*
X22685966Y-76063009D03*
X148884592Y-91267400D03*
X277206500Y-79582500D03*
X187139320Y-91878081D03*
X243755800Y-92866800D03*
X109683609Y-92868750D03*
X72637985Y-92866800D03*
X62563208Y-91547713D03*
X219070640Y-92068500D03*
X307158400Y-79582500D03*
X199933824Y-85943982D03*
X199959517Y-92957933D03*
X195861799Y-90524800D03*
X69991473Y-90524800D03*
X52530129Y-90527974D03*
X209693800Y-39162090D03*
X57293800Y-39204000D03*
X228734271Y-38008467D03*
X76343800Y-38028700D03*
X88411881Y-38020100D03*
X262081300Y-79557999D03*
X92360600Y-41837500D03*
X96315900Y-40001972D03*
X147781300Y-95951100D03*
X271606300Y-75716307D03*
X111268800Y-42562700D03*
X182772815Y-77757315D03*
X301336500Y-76818069D03*
X166831300Y-78530000D03*
X140958100Y-35855873D03*
D23*
X117770968Y-33283614D02*
X117770968Y-35271819D01*
X83482362Y-36178099D02*
X83482362Y-36457015D01*
X192726714Y-34130000D02*
X192726714Y-33319725D01*
X103175321Y-40266912D02*
X103175321Y-36178407D01*
X192726714Y-34130000D02*
X188267394Y-34130000D01*
X168135969Y-30992373D02*
X168135949Y-32387247D01*
X83022856Y-36916521D02*
X67740954Y-36916521D01*
X44077400Y-34218700D02*
X40686073Y-34218700D01*
X109906500Y-37086543D02*
X109906500Y-36585151D01*
X234924814Y-35713818D02*
X234919932Y-35718700D01*
X187348489Y-36550200D02*
X174290449Y-36550200D01*
X108938169Y-37500669D02*
X109492374Y-37500669D01*
X103635028Y-35718700D02*
X105381300Y-35718700D01*
X40226876Y-26636439D02*
X40226876Y-33759503D01*
X105381300Y-35718700D02*
X105381300Y-37041591D01*
X86790385Y-40726472D02*
X102715761Y-40726472D01*
X253332775Y-35718700D02*
X257781300Y-35718700D01*
X145844448Y-30992373D02*
X145844428Y-32398336D01*
X264322431Y-37608953D02*
X264322431Y-54487454D01*
X234929696Y-35718700D02*
X238731300Y-35718700D01*
X124431300Y-35718700D02*
X118283666Y-35718700D01*
X193186439Y-32860000D02*
X195868800Y-32860000D01*
X173831300Y-36091051D02*
X173831300Y-33306480D01*
X148243800Y-32858000D02*
X146304085Y-32858000D01*
X314931300Y-35718700D02*
X314931300Y-36558354D01*
X28830800Y-34347300D02*
X28830800Y-34688217D01*
X264322431Y-54487454D02*
X264603677Y-54768700D01*
X64674704Y-32755180D02*
X64674704Y-35319967D01*
X187807800Y-34589594D02*
X187807800Y-36090889D01*
X86331300Y-35718700D02*
X86331300Y-40267387D01*
X168595395Y-32846700D02*
X172056300Y-32846700D01*
X41844360Y-26176645D02*
X40686670Y-26176645D01*
X42304000Y-21721500D02*
X42304000Y-25717005D01*
X83941761Y-35718700D02*
X86331300Y-35718700D01*
X108938169Y-37500669D02*
X109371133Y-37500669D01*
X173371520Y-32846700D02*
X172056300Y-32846700D01*
X118283666Y-35718700D02*
X117314511Y-35718700D01*
X252873429Y-37149392D02*
X252873434Y-36178038D01*
X42304000Y-20394994D02*
X42304000Y-21721500D01*
X105840378Y-37500669D02*
X108938169Y-37500669D01*
X38966813Y-19935350D02*
X41844356Y-19935350D01*
X38507179Y-34687849D02*
X38507179Y-20394984D01*
X65132504Y-35718700D02*
X67281300Y-35718700D01*
X29290083Y-35147500D02*
X38047528Y-35147500D01*
X234924814Y-35713818D02*
X234929696Y-35718700D01*
X64699110Y-32730774D02*
X64674704Y-32755180D01*
X67281300Y-35718700D02*
X67281300Y-36456867D01*
X311740041Y-37017984D02*
X314471670Y-37017984D01*
X117314511Y-35718700D02*
X110367131Y-35718700D01*
X264603677Y-54768700D02*
X272068800Y-54768700D01*
X109906497Y-36585148D02*
X109906475Y-36179382D01*
X252873429Y-37149392D02*
X263862870Y-37149392D01*
X219681300Y-35718700D02*
X214312550Y-35718700D01*
X65132504Y-35718683D02*
G75*
G02*
X64674705Y-35319967I2096J464583D01*
G01*
X168595395Y-32846751D02*
G75*
G02*
X168135949Y-32387247I5J459451D01*
G01*
X187348489Y-36550200D02*
G75*
G03*
X187807800Y-36090889I11J459300D01*
G01*
X83022856Y-36916462D02*
G75*
G03*
X83482362Y-36457015I44J459462D01*
G01*
X109906497Y-36585151D02*
G75*
G02*
X109906500Y-36585151I3J-49D01*
G01*
X40226945Y-26636439D02*
G75*
G02*
X40686670Y-26176645I459755J39D01*
G01*
X117314511Y-35718687D02*
G75*
G03*
X117769287Y-35263924I-11J454787D01*
G01*
X41844360Y-26176600D02*
G75*
G03*
X42304000Y-25717005I40J459600D01*
G01*
X86790385Y-40726500D02*
G75*
G02*
X86331300Y-40267387I15J459100D01*
G01*
X253332775Y-35718634D02*
G75*
G03*
X252873434Y-36178038I25J-459366D01*
G01*
X29290083Y-35147500D02*
G75*
G02*
X28830800Y-34688217I17J459300D01*
G01*
X118283666Y-35718694D02*
G75*
G02*
X117770968Y-35271819I2134J519994D01*
G01*
X214312501Y-35718750D02*
G75*
G02*
X214312550Y-35718701I99J-50D01*
G01*
X314931284Y-36558354D02*
G75*
G02*
X314471670Y-37017984I-459584J-46D01*
G01*
X103635028Y-35718721D02*
G75*
G03*
X103175321Y-36178407I-28J-459679D01*
G01*
X42304050Y-20394994D02*
G75*
G03*
X41844356Y-19935350I-459650J-6D01*
G01*
X38966813Y-19935379D02*
G75*
G03*
X38507179Y-20394984I-13J-459621D01*
G01*
X109906569Y-37086543D02*
G75*
G02*
X109492374Y-37500669I-414169J43D01*
G01*
X103175372Y-40266912D02*
G75*
G02*
X102715761Y-40726472I-459572J12D01*
G01*
X173371520Y-32846700D02*
G75*
G02*
X173831300Y-33306480I-20J-459800D01*
G01*
X40686073Y-34218724D02*
G75*
G02*
X40226876Y-33759503I27J459224D01*
G01*
X105840378Y-37500700D02*
G75*
G02*
X105381300Y-37041591I22J459100D01*
G01*
X83941761Y-35718662D02*
G75*
G03*
X83482362Y-36178099I39J-459438D01*
G01*
X38507200Y-34687849D02*
G75*
G02*
X38047528Y-35147500I-459700J49D01*
G01*
X187807800Y-34589594D02*
G75*
G02*
X188267394Y-34130000I459600J-6D01*
G01*
X145844400Y-32398336D02*
G75*
G03*
X146304085Y-32858000I459700J36D01*
G01*
X67281379Y-36456867D02*
G75*
G03*
X67740954Y-36916521I459621J-33D01*
G01*
X173831300Y-36091051D02*
G75*
G03*
X174290449Y-36550200I459200J51D01*
G01*
X264322508Y-37608953D02*
G75*
G03*
X263862870Y-37149392I-459608J-47D01*
G01*
X193186439Y-32860014D02*
G75*
G03*
X192726714Y-33319725I-39J-459686D01*
G01*
X109906400Y-36179382D02*
G75*
G02*
X110367131Y-35718700I460700J-18D01*
G01*
X32821295Y-33906805D02*
X32821295Y-26335571D01*
X28733800Y-25876200D02*
X32361924Y-25876200D01*
X32361924Y-25876205D02*
G75*
G02*
X32821295Y-26335571I-24J-459395D01*
G01*
X32821300Y-33906805D02*
G75*
G02*
X32380800Y-34347300I-440500J5D01*
G01*
X35818800Y-53137964D02*
X35818800Y-36082640D01*
X116072073Y-56924025D02*
X116072053Y-55228155D01*
X149177408Y-56934379D02*
X149177425Y-55228176D01*
X39764000Y-35163675D02*
X39764000Y-21721500D01*
X312550000Y-54768700D02*
X312550000Y-56456830D01*
X187593840Y-54768700D02*
X191106300Y-54768700D01*
X272607380Y-73818700D02*
X276831300Y-73818700D01*
X252560377Y-56922696D02*
X244255540Y-56922696D01*
X211578696Y-54768700D02*
X214918800Y-54768700D01*
X43468800Y-56883656D02*
X43477378Y-56892234D01*
X116531503Y-54768700D02*
X119668800Y-54768700D01*
X43468800Y-54768700D02*
X43468800Y-54057641D01*
X91852741Y-54768700D02*
X100618800Y-54768700D01*
X119668800Y-55003187D02*
X119668800Y-54768700D01*
X187134069Y-56933134D02*
X172455635Y-56933134D01*
X43468800Y-54768700D02*
X43468800Y-56883656D01*
X81568800Y-54768700D02*
X81568800Y-56439428D01*
X244255540Y-56922696D02*
X234428148Y-56922696D01*
X91393387Y-56916420D02*
X91393371Y-55228074D01*
X58619151Y-56907671D02*
X58619174Y-55228121D01*
X149636904Y-54768700D02*
X153006300Y-54768700D01*
X211118512Y-56926008D02*
X211118506Y-55228892D01*
X253018800Y-54768700D02*
X253018800Y-56464273D01*
X82027969Y-56898597D02*
X91375564Y-56898597D01*
X187134069Y-56933134D02*
X187134042Y-55228505D01*
X43008559Y-53597400D02*
X36278236Y-53597400D01*
X36278240Y-35623200D02*
X39304475Y-35623200D01*
X172056300Y-56474662D02*
X172056300Y-54768700D01*
X309468603Y-56916066D02*
X312090764Y-56916066D01*
X24418800Y-56432614D02*
X24418800Y-54768700D01*
X59078601Y-54768700D02*
X62518800Y-54768700D01*
X233968800Y-56463348D02*
X233968800Y-54768700D01*
X24878420Y-56892234D02*
X43477378Y-56892234D01*
X116531503Y-54768753D02*
G75*
G03*
X116072053Y-55228155I-3J-459447D01*
G01*
X39764000Y-35163675D02*
G75*
G02*
X39304475Y-35623200I-459500J-25D01*
G01*
X91852741Y-54768771D02*
G75*
G03*
X91393371Y-55228074I-41J-459329D01*
G01*
X187593840Y-54768742D02*
G75*
G03*
X187134042Y-55228505I-40J-459758D01*
G01*
X91393403Y-56916420D02*
G75*
G03*
X91375564Y-56898597I-17803J20D01*
G01*
X35818800Y-53137964D02*
G75*
G03*
X36278236Y-53597400I459400J-36D01*
G01*
X59078601Y-54768674D02*
G75*
G03*
X58619174Y-55228121I-1J-459426D01*
G01*
X172056285Y-56474662D02*
G75*
G03*
X172455635Y-56933134I465215J2062D01*
G01*
X43008559Y-53597400D02*
G75*
G02*
X43468800Y-54057641I41J-460200D01*
G01*
X36278240Y-35623200D02*
G75*
G03*
X35818800Y-36082640I-40J-459400D01*
G01*
X24878420Y-56892200D02*
G75*
G02*
X24418800Y-56432614I-20J459600D01*
G01*
X149636904Y-54768725D02*
G75*
G03*
X149177425Y-55228176I-4J-459475D01*
G01*
X252560377Y-56922700D02*
G75*
G03*
X253018800Y-56464273I23J458400D01*
G01*
X211578696Y-54768706D02*
G75*
G03*
X211118506Y-55228892I4J-460194D01*
G01*
X233968704Y-56463348D02*
G75*
G03*
X234428148Y-56922696I459396J48D01*
G01*
X312550066Y-56456830D02*
G75*
G02*
X312090764Y-56916066I-459266J30D01*
G01*
X82027969Y-56898600D02*
G75*
G02*
X81568800Y-56439428I31J459200D01*
G01*
X29424404Y-45616804D02*
X29424404Y-54309180D01*
X28964884Y-54768700D02*
X27968800Y-54768700D01*
X28964884Y-54768704D02*
G75*
G03*
X29424404Y-54309180I16J459504D01*
G01*
X29424400Y-45616804D02*
G75*
G03*
X28733800Y-44926200I-690600J4D01*
G01*
X278705169Y-92868700D02*
X286356300Y-92868700D01*
X172056300Y-75373420D02*
X172056300Y-73818700D01*
X186908171Y-75832703D02*
X172515583Y-75832703D01*
X297368205Y-74278194D02*
X297368205Y-94128644D01*
X64794556Y-73818700D02*
X67281300Y-73818700D01*
X257781300Y-73818700D02*
X257781300Y-75981235D01*
X101558792Y-73818700D02*
X105381300Y-73818700D01*
X219681300Y-73818700D02*
X215200238Y-73818700D01*
X148809400Y-73817387D02*
X153004987Y-73817387D01*
X153465722Y-75850181D02*
X169721561Y-75850181D01*
X23145577Y-73818700D02*
X26800000Y-73818700D01*
X220140706Y-75821456D02*
X238271663Y-75821456D01*
X258240872Y-76440807D02*
X277786290Y-76440807D01*
X153006300Y-73818700D02*
X153006300Y-75390759D01*
X124431300Y-74868125D02*
X124431300Y-73818700D01*
X83051879Y-76054452D02*
X83051917Y-74277992D01*
X83511219Y-73818700D02*
X86331300Y-73818700D01*
X170181088Y-75390665D02*
X170181113Y-74278031D01*
X64335271Y-76055318D02*
X64335257Y-74278003D01*
X238731300Y-75361819D02*
X238731300Y-73818700D01*
X102011820Y-75327656D02*
X123971769Y-75327656D01*
X219681300Y-73818700D02*
X219681300Y-75362050D01*
X101552739Y-73824753D02*
X101558792Y-73818700D01*
X187367609Y-73818700D02*
X191106300Y-73818700D01*
X170640455Y-73818700D02*
X172056300Y-73818700D01*
X101552739Y-73824753D02*
X101552739Y-74868575D01*
X295881300Y-73818700D02*
X296908711Y-73818700D01*
X254837845Y-73818700D02*
X257781300Y-73818700D01*
X286356300Y-94128052D02*
X286356300Y-92868700D01*
X278245776Y-76900293D02*
X278245776Y-92409307D01*
X186908171Y-75832703D02*
X186908169Y-74278141D01*
X22685966Y-76063009D02*
X22685959Y-74278320D01*
X296909156Y-94587693D02*
X286815941Y-94587693D01*
X44468707Y-73818700D02*
X48231300Y-73818700D01*
X44009784Y-76045706D02*
X44009779Y-74277629D01*
X153006300Y-74159535D02*
X153006300Y-73818700D01*
X23145577Y-73818659D02*
G75*
G03*
X22685959Y-74278320I23J-459641D01*
G01*
X64794556Y-73818657D02*
G75*
G03*
X64335257Y-74278003I44J-459343D01*
G01*
X278705169Y-92868724D02*
G75*
G02*
X278245776Y-92409307I31J459424D01*
G01*
X220140706Y-75821400D02*
G75*
G02*
X219681300Y-75362050I-6J459400D01*
G01*
X153465722Y-75850200D02*
G75*
G02*
X153006300Y-75390759I-22J459400D01*
G01*
X187367609Y-73818669D02*
G75*
G03*
X186908169Y-74278141I-9J-459431D01*
G01*
X44468707Y-73818679D02*
G75*
G03*
X44009779Y-74277629I-7J-458921D01*
G01*
X124431356Y-74868125D02*
G75*
G02*
X123971769Y-75327656I-459556J25D01*
G01*
X153006313Y-73818700D02*
G75*
G03*
X153004987Y-73817387I-1313J0D01*
G01*
X170640455Y-73818613D02*
G75*
G03*
X170181113Y-74278031I45J-459387D01*
G01*
X278245793Y-76900293D02*
G75*
G03*
X277786290Y-76440807I-459493J-7D01*
G01*
X258240872Y-76440800D02*
G75*
G02*
X257781300Y-75981235I28J459600D01*
G01*
X297368200Y-74278194D02*
G75*
G03*
X296908711Y-73818700I-459500J-6D01*
G01*
X215180800Y-73838138D02*
G75*
G02*
X215200238Y-73818700I19400J38D01*
G01*
X296909156Y-94587605D02*
G75*
G03*
X297368205Y-94128644I44J459005D01*
G01*
X238731356Y-75361819D02*
G75*
G02*
X238271663Y-75821456I-459656J19D01*
G01*
X170181081Y-75390665D02*
G75*
G02*
X169721561Y-75850181I-459481J-35D01*
G01*
X83511219Y-73818717D02*
G75*
G03*
X83051917Y-74277992I-19J-459283D01*
G01*
X254837844Y-73818624D02*
G75*
G02*
X254832476Y-73813331I-44J5324D01*
G01*
X102011820Y-75327661D02*
G75*
G02*
X101552739Y-74868575I-20J459061D01*
G01*
X172056297Y-75373420D02*
G75*
G03*
X172515583Y-75832703I459303J20D01*
G01*
X286356307Y-94128052D02*
G75*
G03*
X286815941Y-94587693I459593J-48D01*
G01*
X35383796Y-73358596D02*
X35383796Y-65044996D01*
X30350000Y-73818700D02*
X34923692Y-73818700D01*
X34275000Y-63936204D02*
G75*
G02*
X35383796Y-65044996I0J-1108796D01*
G01*
X35383800Y-73358596D02*
G75*
G02*
X34923692Y-73818700I-460100J-4D01*
G01*
X109683609Y-92868750D02*
X109682404Y-92869955D01*
X229206300Y-92868700D02*
X219529975Y-92868700D01*
X187599117Y-92868700D02*
X191106300Y-92868700D01*
X301774585Y-56195107D02*
X301774585Y-40248120D01*
X53409828Y-60221427D02*
X53409828Y-40165757D01*
X276746698Y-94349025D02*
X267765836Y-94349025D01*
X148424985Y-94381159D02*
X134415586Y-94381159D01*
X50252179Y-27690093D02*
X50252179Y-26235391D01*
X210156300Y-92868700D02*
X208618781Y-92868700D01*
X58976976Y-60681093D02*
X53869494Y-60681093D01*
X76806300Y-92868700D02*
X76806300Y-93668900D01*
X265153167Y-94614817D02*
X248715833Y-94614817D01*
X295881300Y-39330443D02*
X295881300Y-35718700D01*
X277206500Y-79582500D02*
X277206500Y-93889223D01*
X62563208Y-91547713D02*
X58215693Y-91547713D01*
X187140529Y-91879290D02*
X187140529Y-92469276D01*
X49792740Y-25775952D02*
X43855663Y-25775952D01*
X243755800Y-92866800D02*
X248254400Y-92866800D01*
X48274382Y-35550522D02*
X46780016Y-35550522D01*
X52950171Y-39706100D02*
X49193272Y-39706100D01*
X76806300Y-93668900D02*
X76806300Y-94167896D01*
X187139320Y-91878081D02*
X187140529Y-91879290D01*
X72637985Y-92866800D02*
X72639885Y-92868700D01*
X42936937Y-19175078D02*
X35143235Y-19175078D01*
X95856300Y-92868700D02*
X95856300Y-94293781D01*
X153006300Y-92868700D02*
X153006300Y-91727018D01*
X57296419Y-94727954D02*
X32021900Y-94727954D01*
X109683521Y-94293943D02*
X109683609Y-92868750D01*
X43396304Y-25316593D02*
X43396304Y-19634445D01*
X148884592Y-91267400D02*
X148884592Y-93921552D01*
X59631100Y-84816860D02*
X59631100Y-61335217D01*
X62563208Y-91547713D02*
X62563208Y-85735777D01*
X219070640Y-92068500D02*
X219070640Y-92409365D01*
X314931300Y-73818700D02*
X314931300Y-79122742D01*
X52776050Y-32959167D02*
X52776050Y-28609019D01*
X34684000Y-19634313D02*
X34684000Y-21721500D01*
X219070640Y-92068500D02*
X219070640Y-91631534D01*
X57756300Y-92868700D02*
X57756300Y-94268073D01*
X307158400Y-79582500D02*
X307158400Y-57113891D01*
X72639885Y-92868700D02*
X76806300Y-92868700D01*
X46780209Y-33418700D02*
X52316517Y-33418700D01*
X114906300Y-92868700D02*
X109683659Y-92868700D01*
X301316365Y-39789900D02*
X296340757Y-39789900D01*
X187139320Y-91878081D02*
X207699642Y-91878081D01*
X93516598Y-94287814D02*
X93516591Y-93328446D01*
X133956300Y-92868700D02*
X133956300Y-93921873D01*
X46320690Y-35091196D02*
X46320690Y-33878219D01*
X210156300Y-92868700D02*
X210156300Y-91631369D01*
X48733912Y-39246740D02*
X48733912Y-36010052D01*
X93976334Y-92868700D02*
X95856300Y-92868700D01*
X267306300Y-92868700D02*
X267306300Y-93889489D01*
X210615350Y-91172319D02*
X218611425Y-91172319D01*
X307158400Y-79582500D02*
X314471542Y-79582500D01*
X52316643Y-28149612D02*
X50711698Y-28149612D01*
X57756300Y-92007106D02*
X57756300Y-92868700D01*
X148884592Y-91267400D02*
X152546682Y-91267400D01*
X306699056Y-56654547D02*
X302234025Y-56654547D01*
X265612425Y-93328139D02*
X265612411Y-94155579D01*
X267306300Y-92868700D02*
X266071871Y-92868700D01*
X248256300Y-92868700D02*
X248256300Y-94155284D01*
X96315951Y-94753432D02*
X109224004Y-94753432D01*
X62103723Y-85276297D02*
X60090565Y-85276320D01*
X31562500Y-92868700D02*
X31562500Y-94268554D01*
X77385688Y-94747284D02*
X93057132Y-94747284D01*
X208159306Y-92337745D02*
X208159312Y-92409270D01*
X57296419Y-94728000D02*
G75*
G03*
X57756300Y-94268073I-19J459900D01*
G01*
X314931300Y-79122742D02*
G75*
G02*
X314471542Y-79582500I-459800J42D01*
G01*
X46320678Y-35091196D02*
G75*
G03*
X46780016Y-35550522I459322J-4D01*
G01*
X301774553Y-56195107D02*
G75*
G03*
X302234025Y-56654547I459447J7D01*
G01*
X34683978Y-19634313D02*
G75*
G02*
X35143235Y-19175078I459222J13D01*
G01*
X219070581Y-91631534D02*
G75*
G03*
X218611425Y-91172319I-459181J34D01*
G01*
X53409807Y-60221427D02*
G75*
G03*
X53869494Y-60681093I459693J27D01*
G01*
X48733900Y-39246740D02*
G75*
G03*
X49193272Y-39706100I459400J40D01*
G01*
X62103723Y-85276292D02*
G75*
G02*
X62563208Y-85735777I-23J-459508D01*
G01*
X248256283Y-94155284D02*
G75*
G03*
X248715833Y-94614817I459517J-16D01*
G01*
X109683532Y-94293943D02*
G75*
G02*
X109224004Y-94753432I-459532J43D01*
G01*
X93976334Y-92868691D02*
G75*
G03*
X93516591Y-93328446I-34J-459709D01*
G01*
X267306275Y-93889489D02*
G75*
G03*
X267765836Y-94349025I459525J-11D01*
G01*
X93516584Y-94287814D02*
G75*
G02*
X93057132Y-94747284I-459484J14D01*
G01*
X77385688Y-94747300D02*
G75*
G02*
X76806300Y-94167896I12J579400D01*
G01*
X43396348Y-25316593D02*
G75*
G03*
X43855663Y-25775952I459352J-7D01*
G01*
X153006300Y-91727018D02*
G75*
G03*
X152546682Y-91267400I-459600J18D01*
G01*
X52950171Y-39706172D02*
G75*
G02*
X53409828Y-40165757I29J-459628D01*
G01*
X57756313Y-92007106D02*
G75*
G02*
X58215693Y-91547713I459387J6D01*
G01*
X109683605Y-92868748D02*
G75*
G02*
X109683659Y-92868700I95J-52D01*
G01*
X276746698Y-94349000D02*
G75*
G03*
X277206500Y-93889223I2J459800D01*
G01*
X148424985Y-94381192D02*
G75*
G03*
X148884592Y-93921552I15J459592D01*
G01*
X265153167Y-94614811D02*
G75*
G03*
X265612411Y-94155579I33J459211D01*
G01*
X210615350Y-91172300D02*
G75*
G03*
X210156300Y-91631369I50J-459100D01*
G01*
X306699056Y-56654600D02*
G75*
G02*
X307158400Y-57113891I44J-459300D01*
G01*
X59631180Y-84816860D02*
G75*
G03*
X60090565Y-85276320I459420J-40D01*
G01*
X42936937Y-19174996D02*
G75*
G02*
X43396304Y-19634445I-37J-459404D01*
G01*
X133956341Y-93921873D02*
G75*
G03*
X134415586Y-94381159I459259J-27D01*
G01*
X265612500Y-93328139D02*
G75*
G02*
X266071871Y-92868700I459400J39D01*
G01*
X248256300Y-92868700D02*
G75*
G03*
X248254400Y-92866800I-1900J0D01*
G01*
X208159219Y-92337745D02*
G75*
G03*
X207699642Y-91878081I-459619J45D01*
G01*
X52316643Y-28149550D02*
G75*
G02*
X52776050Y-28609019I-43J-459450D01*
G01*
X31562546Y-94268554D02*
G75*
G03*
X32021900Y-94727954I459354J-46D01*
G01*
X96315951Y-94753500D02*
G75*
G02*
X95856300Y-94293781I49J459700D01*
G01*
X301316365Y-39789915D02*
G75*
G02*
X301774585Y-40248120I35J-458185D01*
G01*
X208159300Y-92409270D02*
G75*
G03*
X208618781Y-92868700I459500J70D01*
G01*
X295881300Y-39330443D02*
G75*
G03*
X296340757Y-39789900I459500J43D01*
G01*
X46780209Y-33418690D02*
G75*
G03*
X46320690Y-33878219I-9J-459510D01*
G01*
X219070700Y-92409365D02*
G75*
G03*
X219529975Y-92868700I459300J-35D01*
G01*
X48274382Y-35550588D02*
G75*
G02*
X48733912Y-36010052I18J-459512D01*
G01*
X52776000Y-32959167D02*
G75*
G02*
X52316517Y-33418700I-459500J-33D01*
G01*
X50252188Y-27690093D02*
G75*
G03*
X50711698Y-28149612I459512J-7D01*
G01*
X49792740Y-25775921D02*
G75*
G02*
X50252179Y-26235391I-40J-459479D01*
G01*
X58976976Y-60681100D02*
G75*
G02*
X59631100Y-61335217I24J-654100D01*
G01*
X187599117Y-92868752D02*
G75*
G02*
X187140529Y-92469276I2083J465352D01*
G01*
X40149685Y-92409782D02*
X40149685Y-84098385D01*
X35112500Y-92868700D02*
X39690767Y-92868700D01*
X40149700Y-92409782D02*
G75*
G02*
X39690767Y-92868700I-458900J-18D01*
G01*
X39037500Y-82986215D02*
G75*
G02*
X40149685Y-84098385I0J-1112185D01*
G01*
X27591242Y-103861555D02*
X27591242Y-92032518D01*
X26800000Y-111918700D02*
X26800000Y-110909001D01*
X251087239Y-113386752D02*
X269948708Y-113386752D01*
X72503542Y-113377349D02*
X90651067Y-113377349D01*
X188700952Y-113423871D02*
X172539848Y-113423871D01*
X93856078Y-113370979D02*
X119257180Y-113370979D01*
X33782624Y-94161444D02*
X41296137Y-94161444D01*
X23903033Y-53496966D02*
X28515149Y-53496966D01*
X270867852Y-111918700D02*
X272068800Y-111918700D01*
X120176303Y-111918700D02*
X122050000Y-111918700D01*
X306726785Y-80759091D02*
X320176261Y-80759091D01*
X32757500Y-79861519D02*
X32757500Y-75584899D01*
X310168800Y-112924022D02*
X310168800Y-92868700D01*
X250637500Y-111918700D02*
X249505038Y-111918700D01*
X41295452Y-80321486D02*
X33217467Y-80321486D01*
X26800000Y-112718900D02*
X26800000Y-111918700D01*
X219459658Y-113426340D02*
X191614441Y-113426340D01*
X27259890Y-113367590D02*
X70046672Y-113367590D01*
X272553065Y-113383934D02*
X309708888Y-113383934D01*
X70506006Y-112908275D02*
X70506028Y-112377986D01*
X172056300Y-111918700D02*
X170659512Y-111918700D01*
X28050901Y-91572859D02*
X32863693Y-91572859D01*
X33217029Y-75125370D02*
X36592514Y-75125370D01*
X291118800Y-54768700D02*
X283398235Y-54768700D01*
X222062500Y-111918700D02*
X220378860Y-111918700D01*
X32144000Y-23287198D02*
X32144000Y-21721500D01*
X191106300Y-112918199D02*
X191106300Y-111918700D01*
X28345147Y-28014003D02*
X26723265Y-28014003D01*
X28974404Y-53037711D02*
X28974404Y-47561331D01*
X169740617Y-113417363D02*
X153520845Y-113417363D01*
X26263582Y-27554320D02*
X26263582Y-24205907D01*
X250637500Y-111918700D02*
X250637500Y-112937013D01*
X91110181Y-112918192D02*
X91110181Y-112378498D01*
X26436507Y-33410969D02*
X28345958Y-33410969D01*
X191106300Y-111918700D02*
X189619069Y-111918700D01*
X26800000Y-111918700D02*
X26800000Y-112907700D01*
X150836835Y-112938811D02*
X150836842Y-112377466D01*
X306267300Y-57939296D02*
X306267300Y-80299606D01*
X26722968Y-23746521D02*
X31684677Y-23746521D01*
X176460030Y-104416000D02*
X172516018Y-104416000D01*
X153006300Y-111918700D02*
X151295614Y-111918700D01*
X282939000Y-54309465D02*
X282939000Y-40249473D01*
X176919322Y-109840772D02*
X176919322Y-104875292D01*
X222612036Y-113380920D02*
X248586760Y-113380920D01*
X91570000Y-111918700D02*
X93475000Y-111918700D01*
X291578099Y-57479800D02*
X305807804Y-57479800D01*
X272068800Y-111918700D02*
X272068800Y-112899669D01*
X276831300Y-39330342D02*
X276831300Y-35718700D01*
X28804526Y-32952401D02*
X28804526Y-28473382D01*
X122050000Y-112939737D02*
X122050000Y-111918700D01*
X23443800Y-60782502D02*
X23443800Y-53956199D01*
X170199808Y-112958173D02*
X170199807Y-112378406D01*
X41755289Y-93702292D02*
X41755289Y-80781323D01*
X93475000Y-111918700D02*
X93475000Y-112989901D01*
X70965333Y-111918700D02*
X72043800Y-111918700D01*
X153006300Y-112902818D02*
X153006300Y-111918700D01*
X150377193Y-113398447D02*
X122508710Y-113398447D01*
X36592644Y-61242602D02*
X23903900Y-61242602D01*
X189160104Y-112964731D02*
X189160120Y-112377635D01*
X219918979Y-112967015D02*
X219918974Y-112378590D01*
X291118800Y-54768700D02*
X291118800Y-57020501D01*
X270408236Y-112927224D02*
X270408236Y-112378316D01*
X249045726Y-112378012D02*
X249045726Y-112921954D01*
X172056300Y-111918700D02*
X172056300Y-110759211D01*
X172515611Y-110299900D02*
X176460194Y-110299900D01*
X31690736Y-110116803D02*
X31690736Y-104780648D01*
X119716735Y-112911404D02*
X119716712Y-112378311D01*
X25976800Y-46642427D02*
X25976800Y-33870676D01*
X72043800Y-112917607D02*
X72043800Y-111918700D01*
X28514359Y-47101286D02*
X26435659Y-47101286D01*
X320635704Y-81218534D02*
X320635704Y-93621976D01*
X282479427Y-39789900D02*
X277290858Y-39789900D01*
X27176928Y-110532073D02*
X31275466Y-110532073D01*
X172056300Y-112940323D02*
X172056300Y-111918700D01*
X312018283Y-93621894D02*
X312018272Y-93328218D01*
X31231160Y-104321072D02*
X28050759Y-104321072D01*
X33323166Y-92032332D02*
X33323166Y-93701986D01*
X172056300Y-103956282D02*
X172056300Y-92868700D01*
X37052094Y-74665790D02*
X37052094Y-61702052D01*
X311558738Y-92868700D02*
X310168800Y-92868700D01*
X320176351Y-94081329D02*
X312477735Y-94081329D01*
X222062500Y-111918700D02*
X222062500Y-112831384D01*
X70965333Y-111918728D02*
G75*
G03*
X70506028Y-112377986I-33J-459272D01*
G01*
X188700952Y-113423804D02*
G75*
G03*
X189160104Y-112964731I48J459104D01*
G01*
X122049953Y-112939737D02*
G75*
G03*
X122508710Y-113398447I458747J37D01*
G01*
X153006237Y-112902818D02*
G75*
G03*
X153520845Y-113417363I514563J18D01*
G01*
X312018271Y-93621894D02*
G75*
G03*
X312477735Y-94081329I459429J-6D01*
G01*
X28050901Y-91572842D02*
G75*
G03*
X27591242Y-92032518I-1J-459658D01*
G01*
X270867852Y-111918636D02*
G75*
G03*
X270408236Y-112378316I48J-459664D01*
G01*
X93856078Y-113371000D02*
G75*
G02*
X93475000Y-112989901I22J381100D01*
G01*
X276831300Y-39330342D02*
G75*
G03*
X277290858Y-39789900I459600J42D01*
G01*
X28804569Y-32952401D02*
G75*
G02*
X28345958Y-33410969I-458569J1D01*
G01*
X320635709Y-81218534D02*
G75*
G03*
X320176261Y-80759091I-459409J34D01*
G01*
X28974366Y-53037711D02*
G75*
G02*
X28515149Y-53496966I-459266J11D01*
G01*
X33323141Y-92032332D02*
G75*
G03*
X32863693Y-91572859I-459441J32D01*
G01*
X41295452Y-80321511D02*
G75*
G02*
X41755289Y-80781323I48J-459789D01*
G01*
X36592644Y-61242606D02*
G75*
G02*
X37052094Y-61702052I-44J-459494D01*
G01*
X176919300Y-109840772D02*
G75*
G02*
X176460194Y-110299900I-459100J-28D01*
G01*
X219919000Y-112378590D02*
G75*
G02*
X220378860Y-111918700I459900J-10D01*
G01*
X119716779Y-112911404D02*
G75*
G02*
X119257180Y-113370979I-459579J4D01*
G01*
X37052070Y-74665790D02*
G75*
G02*
X36592514Y-75125370I-459570J-10D01*
G01*
X32757514Y-79861519D02*
G75*
G03*
X33217467Y-80321486I459986J19D01*
G01*
X27591328Y-103861555D02*
G75*
G03*
X28050759Y-104321072I459472J-45D01*
G01*
X31690773Y-110116803D02*
G75*
G02*
X31275466Y-110532073I-415273J3D01*
G01*
X27176928Y-110532100D02*
G75*
G03*
X26800000Y-110909001I-28J-376900D01*
G01*
X172056229Y-112940323D02*
G75*
G03*
X172539848Y-113423871I483571J23D01*
G01*
X23443798Y-60782502D02*
G75*
G03*
X23903900Y-61242602I460102J2D01*
G01*
X150836800Y-112377466D02*
G75*
G02*
X151295614Y-111918700I458800J-34D01*
G01*
X150377193Y-113398435D02*
G75*
G03*
X150836835Y-112938811I7J459635D01*
G01*
X23903033Y-53497000D02*
G75*
G03*
X23443800Y-53956199I-33J-459200D01*
G01*
X310168834Y-112924022D02*
G75*
G02*
X309708888Y-113383934I-459934J22D01*
G01*
X169740617Y-113417408D02*
G75*
G03*
X170199808Y-112958173I-17J459208D01*
G01*
X27259890Y-113367600D02*
G75*
G02*
X26800000Y-112907700I10J459900D01*
G01*
X91110249Y-112918192D02*
G75*
G02*
X90651067Y-113377349I-459149J-8D01*
G01*
X282939000Y-54309465D02*
G75*
G03*
X283398235Y-54768700I459200J-35D01*
G01*
X26263597Y-27554320D02*
G75*
G03*
X26723265Y-28014003I459703J20D01*
G01*
X120176303Y-111918712D02*
G75*
G03*
X119716712Y-112378311I-3J-459588D01*
G01*
X32144021Y-23287198D02*
G75*
G02*
X31684677Y-23746521I-459321J-2D01*
G01*
X272553065Y-113384000D02*
G75*
G02*
X272068800Y-112899669I35J484300D01*
G01*
X249045720Y-112921954D02*
G75*
G02*
X248586760Y-113380920I-458920J-46D01*
G01*
X172515611Y-110299900D02*
G75*
G03*
X172056300Y-110759211I-11J-459300D01*
G01*
X72503542Y-113377300D02*
G75*
G02*
X72043800Y-112917607I-42J459700D01*
G01*
X222612036Y-113380900D02*
G75*
G02*
X222062500Y-112831384I-36J549500D01*
G01*
X26436507Y-33411000D02*
G75*
G03*
X25976800Y-33870676I-7J-459700D01*
G01*
X172056300Y-103956282D02*
G75*
G03*
X172516018Y-104416000I459700J-18D01*
G01*
X91110202Y-112378481D02*
G75*
G03*
X91110181Y-112378498I-2J-19D01*
G01*
X26722968Y-23746482D02*
G75*
G03*
X26263582Y-24205907I32J-459418D01*
G01*
X170199800Y-112378406D02*
G75*
G02*
X170659512Y-111918700I459700J6D01*
G01*
X191106260Y-112918199D02*
G75*
G03*
X191614441Y-113426340I508140J-1D01*
G01*
X176460030Y-104415978D02*
G75*
G02*
X176919322Y-104875292I-30J-459322D01*
G01*
X189160200Y-112377635D02*
G75*
G02*
X189619069Y-111918700I458900J35D01*
G01*
X291578099Y-57479800D02*
G75*
G02*
X291118800Y-57020501I1J459300D01*
G01*
X33217029Y-75125400D02*
G75*
G03*
X32757500Y-75584899I-29J-459500D01*
G01*
X25976814Y-46642427D02*
G75*
G03*
X26435659Y-47101286I458886J27D01*
G01*
X91570000Y-111918702D02*
G75*
G03*
X91110202Y-112378477I0J-459798D01*
G01*
X251087239Y-113386700D02*
G75*
G02*
X250637500Y-112937013I-39J449700D01*
G01*
X70505990Y-112908275D02*
G75*
G02*
X70046672Y-113367590I-459290J-25D01*
G01*
X33782624Y-94161434D02*
G75*
G02*
X33323166Y-93701986I-24J459434D01*
G01*
X31231160Y-104321064D02*
G75*
G02*
X31690736Y-104780648I40J-459536D01*
G01*
X219459658Y-113426279D02*
G75*
G03*
X219918979Y-112967015I42J459279D01*
G01*
X270408252Y-112927224D02*
G75*
G02*
X269948708Y-113386752I-459552J24D01*
G01*
X41755244Y-93702292D02*
G75*
G02*
X41296137Y-94161444I-459144J-8D01*
G01*
X320176351Y-94081304D02*
G75*
G03*
X320635704Y-93621976I49J459304D01*
G01*
X28514359Y-47101296D02*
G75*
G02*
X28974404Y-47561331I41J-460004D01*
G01*
X282479427Y-39789900D02*
G75*
G02*
X282939000Y-40249473I-27J-459600D01*
G01*
X306267300Y-57939296D02*
G75*
G03*
X305807804Y-57479800I-459500J-4D01*
G01*
X28345147Y-28013974D02*
G75*
G02*
X28804526Y-28473382I-47J-459426D01*
G01*
X311558738Y-92868628D02*
G75*
G02*
X312018272Y-93328218I-38J-459572D01*
G01*
X249045700Y-112378012D02*
G75*
G02*
X249505038Y-111918700I459300J12D01*
G01*
X306726785Y-80759100D02*
G75*
G02*
X306267300Y-80299606I15J459500D01*
G01*
X35638210Y-111459543D02*
X35638210Y-103399410D01*
X30350000Y-111918700D02*
X35179053Y-111918700D01*
X34275000Y-102036190D02*
G75*
G02*
X35638210Y-103399410I0J-1363210D01*
G01*
X35638300Y-111459543D02*
G75*
G02*
X35179053Y-111918700I-459200J43D01*
G01*
X47627400Y-34218700D02*
X56389806Y-34218700D01*
X56849441Y-33759065D02*
X56849441Y-26979341D01*
X56849400Y-33759065D02*
G75*
G02*
X56389806Y-34218700I-459600J-35D01*
G01*
X55706300Y-25836159D02*
G75*
G02*
X56849441Y-26979341I0J-1143141D01*
G01*
X50943800Y-44886200D02*
X50943800Y-47738821D01*
X50484021Y-48198600D02*
X49007889Y-48198600D01*
X48548400Y-48658089D02*
X48548400Y-54309603D01*
X48089303Y-54768700D02*
X47018800Y-54768700D01*
X48548400Y-48658089D02*
G75*
G02*
X49007889Y-48198600I459500J-11D01*
G01*
X50484021Y-48198600D02*
G75*
G03*
X50943800Y-47738821I-21J459800D01*
G01*
X48089303Y-54768700D02*
G75*
G03*
X48548400Y-54309603I-3J459100D01*
G01*
X51781300Y-73818700D02*
X56362998Y-73818700D01*
X56822156Y-73359542D02*
X56822156Y-65052056D01*
X56822200Y-73359542D02*
G75*
G02*
X56362998Y-73818700I-459200J42D01*
G01*
X55706300Y-63936244D02*
G75*
G02*
X56822156Y-65052056I0J-1115856D01*
G01*
X65909122Y-92868700D02*
X61306300Y-92868700D01*
X66368800Y-84123700D02*
X66368800Y-92409022D01*
X65909122Y-92868700D02*
G75*
G03*
X66368800Y-92409022I-22J459700D01*
G01*
X66368800Y-84123700D02*
G75*
G03*
X65231300Y-82986200I-1137500J0D01*
G01*
X75593800Y-111918700D02*
X80157760Y-111918700D01*
X80616853Y-111459607D02*
X80616853Y-103134253D01*
X80616900Y-111459607D02*
G75*
G02*
X80157760Y-111918700I-459100J7D01*
G01*
X79518800Y-102036247D02*
G75*
G02*
X80616853Y-103134253I0J-1098053D01*
G01*
X76005394Y-35259166D02*
X76005394Y-27085294D01*
X70831300Y-35718700D02*
X75545860Y-35718700D01*
X74756300Y-25836206D02*
G75*
G02*
X76005394Y-27085294I0J-1249094D01*
G01*
X76005400Y-35259166D02*
G75*
G02*
X75545860Y-35718700I-459500J-34D01*
G01*
X66068800Y-54768700D02*
X70535066Y-54768700D01*
X70994308Y-54309458D02*
X70994308Y-45886708D01*
X70994300Y-54309458D02*
G75*
G02*
X70535066Y-54768700I-459200J-42D01*
G01*
X69993800Y-44886192D02*
G75*
G02*
X70994308Y-45886708I0J-1000508D01*
G01*
X70831300Y-73818700D02*
X75403694Y-73818700D01*
X75863189Y-73359205D02*
X75863189Y-65043089D01*
X75863200Y-73359205D02*
G75*
G02*
X75403694Y-73818700I-459500J5D01*
G01*
X74756300Y-63936211D02*
G75*
G02*
X75863189Y-65043089I0J-1106889D01*
G01*
X80356300Y-92868700D02*
X85023348Y-92868700D01*
X85483052Y-92408996D02*
X85483052Y-84187952D01*
X84281300Y-82986248D02*
G75*
G02*
X85483052Y-84187952I0J-1201752D01*
G01*
X85483000Y-92408996D02*
G75*
G02*
X85023348Y-92868700I-459700J-4D01*
G01*
X97025000Y-111918700D02*
X101554854Y-111918700D01*
X102014780Y-111458774D02*
X102014780Y-103100980D01*
X100950000Y-102036220D02*
G75*
G02*
X102014780Y-103100980I0J-1064780D01*
G01*
X102014800Y-111458774D02*
G75*
G02*
X101554854Y-111918700I-459900J-26D01*
G01*
X89881300Y-35718700D02*
X94489433Y-35718700D01*
X94949450Y-35258683D02*
X94949450Y-26979350D01*
X94949400Y-35258683D02*
G75*
G02*
X94489433Y-35718700I-460000J-17D01*
G01*
X93806300Y-25836250D02*
G75*
G02*
X94949450Y-26979350I0J-1143150D01*
G01*
X85118800Y-54768700D02*
X89635102Y-54768700D01*
X90094850Y-54308952D02*
X90094850Y-45937250D01*
X90094800Y-54308952D02*
G75*
G02*
X89635102Y-54768700I-459700J-48D01*
G01*
X89043800Y-44886150D02*
G75*
G02*
X90094850Y-45937250I0J-1051050D01*
G01*
X89881300Y-73818700D02*
X94396553Y-73818700D01*
X94855792Y-73359461D02*
X94855792Y-64985692D01*
X93806300Y-63936208D02*
G75*
G02*
X94855792Y-64985692I0J-1049492D01*
G01*
X94855800Y-73359461D02*
G75*
G02*
X94396553Y-73818700I-459200J-39D01*
G01*
X99406300Y-92868700D02*
X103947132Y-92868700D01*
X104406444Y-92409388D02*
X104406444Y-84061344D01*
X104406400Y-92409388D02*
G75*
G02*
X103947132Y-92868700I-459300J-12D01*
G01*
X103331300Y-82986156D02*
G75*
G02*
X104406444Y-84061344I0J-1075144D01*
G01*
X130505835Y-111458877D02*
X130505835Y-103017035D01*
X125600000Y-111918700D02*
X130046012Y-111918700D01*
X130505800Y-111458877D02*
G75*
G02*
X130046012Y-111918700I-459800J-23D01*
G01*
X129525000Y-102036165D02*
G75*
G02*
X130505835Y-103017035I0J-980835D01*
G01*
X114255980Y-34009406D02*
X114255980Y-27235880D01*
X109390653Y-34468300D02*
X113797086Y-34468300D01*
X108931300Y-35718700D02*
X108931300Y-34927667D01*
X112856300Y-25836220D02*
G75*
G02*
X114255980Y-27235880I0J-1399680D01*
G01*
X109390639Y-34468300D02*
G75*
G03*
X109390640Y-34468313I61J0D01*
G01*
X114256000Y-34009406D02*
G75*
G02*
X113797086Y-34468300I-458900J6D01*
G01*
X109390640Y-34468300D02*
G75*
G03*
X108931300Y-34927667I60J-459400D01*
G01*
X104168800Y-54768700D02*
X108654230Y-54768700D01*
X109112836Y-54310094D02*
X109112836Y-45905236D01*
X109112800Y-54310094D02*
G75*
G02*
X108654230Y-54768700I-458600J-6D01*
G01*
X108093800Y-44886164D02*
G75*
G02*
X109112836Y-45905236I0J-1019036D01*
G01*
X113970164Y-73358963D02*
X113970164Y-65050064D01*
X108931300Y-73818700D02*
X113510427Y-73818700D01*
X112856300Y-63936236D02*
G75*
G02*
X113970164Y-65050064I0J-1113864D01*
G01*
X113970100Y-73358963D02*
G75*
G02*
X113510427Y-73818700I-459700J-37D01*
G01*
X123544570Y-92409167D02*
X123544570Y-84149470D01*
X118456300Y-92868700D02*
X123085037Y-92868700D01*
X122381300Y-82986230D02*
G75*
G02*
X123544570Y-84149470I0J-1163270D01*
G01*
X123544500Y-92409167D02*
G75*
G02*
X123085037Y-92868700I-459500J-33D01*
G01*
X161612441Y-111459006D02*
X161612441Y-103167341D01*
X156556300Y-111918700D02*
X161152747Y-111918700D01*
X161612400Y-111459006D02*
G75*
G02*
X161152747Y-111918700I-459700J6D01*
G01*
X160481300Y-102036159D02*
G75*
G02*
X161612441Y-103167341I0J-1131141D01*
G01*
X127981300Y-35718700D02*
X132529063Y-35718700D01*
X132988086Y-35259677D02*
X132988086Y-26917986D01*
X131906300Y-25836214D02*
G75*
G02*
X132988086Y-26917986I0J-1081786D01*
G01*
X132988100Y-35259677D02*
G75*
G02*
X132529063Y-35718700I-459000J-23D01*
G01*
X128192381Y-54309254D02*
X128192381Y-45934781D01*
X123218800Y-54768700D02*
X127732935Y-54768700D01*
X128192300Y-54309254D02*
G75*
G02*
X127732935Y-54768700I-459400J-46D01*
G01*
X127143800Y-44886219D02*
G75*
G02*
X128192381Y-45934781I0J-1048581D01*
G01*
X127981300Y-73818700D02*
X132731966Y-73818700D01*
X133191371Y-73359295D02*
X133191371Y-65221271D01*
X131906300Y-63936229D02*
G75*
G02*
X133191371Y-65221271I0J-1285071D01*
G01*
X133191400Y-73359295D02*
G75*
G02*
X132731966Y-73818700I-459400J-5D01*
G01*
X142773580Y-84328480D02*
X142773580Y-92409506D01*
X142314386Y-92868700D02*
X137506300Y-92868700D01*
X142314386Y-92868680D02*
G75*
G03*
X142773580Y-92409506I14J459180D01*
G01*
X142773600Y-84328480D02*
G75*
G03*
X141431300Y-82986200I-1342300J-20D01*
G01*
X180558528Y-111459212D02*
X180558528Y-103063428D01*
X175606300Y-111918700D02*
X180099040Y-111918700D01*
X180558500Y-111459212D02*
G75*
G02*
X180099040Y-111918700I-459500J12D01*
G01*
X179531300Y-102036172D02*
G75*
G02*
X180558528Y-103063428I0J-1027228D01*
G01*
X156108800Y-23495000D02*
X158311583Y-23495000D01*
X151793800Y-32858000D02*
X158310608Y-32858000D01*
X158770516Y-32398092D02*
X158770516Y-23953933D01*
X151793800Y-32858000D02*
X151793800Y-34850000D01*
X158311583Y-23494984D02*
G75*
G02*
X158770516Y-23953933I17J-458916D01*
G01*
X152518800Y-35575000D02*
G75*
G02*
X151793800Y-34850000I0J725000D01*
G01*
X158770500Y-32398092D02*
G75*
G02*
X158310608Y-32858000I-459900J-8D01*
G01*
X161492541Y-54309169D02*
X161492541Y-45897441D01*
X156556300Y-54768700D02*
X161033010Y-54768700D01*
X160481300Y-44886159D02*
G75*
G02*
X161492541Y-45897441I0J-1011241D01*
G01*
X161492500Y-54309169D02*
G75*
G02*
X161033010Y-54768700I-459500J-31D01*
G01*
X156556300Y-73818700D02*
X161063081Y-73818700D01*
X161522596Y-73359185D02*
X161522596Y-64977496D01*
X160481300Y-63936204D02*
G75*
G02*
X161522596Y-64977496I0J-1041296D01*
G01*
X161522600Y-73359185D02*
G75*
G02*
X161063081Y-73818700I-459500J-15D01*
G01*
X161686365Y-92409304D02*
X161686365Y-84191265D01*
X156556300Y-92868700D02*
X161226969Y-92868700D01*
X160481300Y-82986235D02*
G75*
G02*
X161686365Y-84191265I0J-1205065D01*
G01*
X161686400Y-92409304D02*
G75*
G02*
X161226969Y-92868700I-459400J4D01*
G01*
X175606300Y-92868700D02*
X180304494Y-92868700D01*
X180764299Y-92408895D02*
X180764299Y-84219199D01*
X179531300Y-82986201D02*
G75*
G02*
X180764299Y-84219199I0J-1232999D01*
G01*
X180764300Y-92408895D02*
G75*
G02*
X180304494Y-92868700I-459800J-5D01*
G01*
X181750637Y-32387177D02*
X181750637Y-23954282D01*
X175606300Y-32846700D02*
X175606300Y-34850000D01*
X175606300Y-32846700D02*
X181291114Y-32846700D01*
X179921300Y-23495000D02*
X181291355Y-23495000D01*
X176331300Y-35575000D02*
G75*
G02*
X175606300Y-34850000I0J725000D01*
G01*
X181291355Y-23495063D02*
G75*
G02*
X181750637Y-23954282I45J-459237D01*
G01*
X181750600Y-32387177D02*
G75*
G02*
X181291114Y-32846700I-459500J-23D01*
G01*
X180488223Y-54309340D02*
X180488223Y-45843123D01*
X175606300Y-54768700D02*
X180028863Y-54768700D01*
X180488300Y-54309340D02*
G75*
G02*
X180028863Y-54768700I-459400J40D01*
G01*
X179531300Y-44886177D02*
G75*
G02*
X180488223Y-45843123I0J-956923D01*
G01*
X180674174Y-73359333D02*
X180674174Y-65079074D01*
X175606300Y-73818700D02*
X180214807Y-73818700D01*
X179531300Y-63936226D02*
G75*
G02*
X180674174Y-65079074I0J-1142874D01*
G01*
X180674200Y-73359333D02*
G75*
G02*
X180214807Y-73818700I-459400J33D01*
G01*
X199933824Y-84338724D02*
X199933824Y-85943982D01*
X199870284Y-92868700D02*
X194656300Y-92868700D01*
X199959517Y-92957933D02*
X199870284Y-92868700D01*
X199933800Y-84338724D02*
G75*
G03*
X198581300Y-82986200I-1352500J24D01*
G01*
X199686278Y-111459082D02*
X199686278Y-103141178D01*
X194656300Y-111918700D02*
X199226660Y-111918700D01*
X199686300Y-111459082D02*
G75*
G02*
X199226660Y-111918700I-459600J-18D01*
G01*
X198581300Y-102036222D02*
G75*
G02*
X199686278Y-103141178I0J-1104978D01*
G01*
X203733800Y-23495000D02*
X205565271Y-23495000D01*
X199418800Y-32860000D02*
X205565402Y-32860000D01*
X199418800Y-32860000D02*
X199418800Y-34850000D01*
X206024849Y-32400553D02*
X206024849Y-23954578D01*
X206024800Y-32400553D02*
G75*
G02*
X205565402Y-32860000I-459400J-47D01*
G01*
X200143800Y-35575000D02*
G75*
G02*
X199418800Y-34850000I0J725000D01*
G01*
X205565271Y-23495051D02*
G75*
G02*
X206024849Y-23954578I29J-459549D01*
G01*
X199680750Y-54309291D02*
X199680750Y-45985650D01*
X194656300Y-54768700D02*
X199221341Y-54768700D01*
X199680700Y-54309291D02*
G75*
G02*
X199221341Y-54768700I-459400J-9D01*
G01*
X198581300Y-44886150D02*
G75*
G02*
X199680750Y-45985650I0J-1099450D01*
G01*
X194656300Y-73818700D02*
X199199263Y-73818700D01*
X199658951Y-73359012D02*
X199658951Y-65013851D01*
X199659000Y-73359012D02*
G75*
G02*
X199199263Y-73818700I-459700J12D01*
G01*
X198581300Y-63936249D02*
G75*
G02*
X199658951Y-65013851I0J-1077651D01*
G01*
X214172587Y-94410005D02*
X230323669Y-94410005D01*
X213706300Y-92868700D02*
X213706300Y-93943718D01*
X221556100Y-90831596D02*
X221556100Y-83445821D01*
X230783450Y-93950224D02*
X230783450Y-91749721D01*
X221096479Y-82986200D02*
X217631300Y-82986200D01*
X230324324Y-91290595D02*
X222015099Y-91290595D01*
X214172587Y-94410000D02*
G75*
G02*
X213706300Y-93943718I13J466300D01*
G01*
X230324324Y-91290550D02*
G75*
G02*
X230783450Y-91749721I-24J-459150D01*
G01*
X230783505Y-93950224D02*
G75*
G02*
X230323669Y-94410005I-459805J24D01*
G01*
X221096479Y-82986200D02*
G75*
G02*
X221556100Y-83445821I21J-459600D01*
G01*
X221556105Y-90831596D02*
G75*
G03*
X222015099Y-91290595I458995J-4D01*
G01*
X225612500Y-111918700D02*
X230417615Y-111918700D01*
X230877205Y-111459110D02*
X230877205Y-103375905D01*
X230877200Y-111459110D02*
G75*
G02*
X230417615Y-111918700I-459600J10D01*
G01*
X229537500Y-102036195D02*
G75*
G02*
X230877205Y-103375905I0J-1339705D01*
G01*
X227919247Y-35718700D02*
X223231300Y-35718700D01*
X228379265Y-35258682D02*
X228379265Y-27059165D01*
X227919247Y-35718765D02*
G75*
G03*
X228379265Y-35258682I-47J460065D01*
G01*
X227156300Y-25836235D02*
G75*
G02*
X228379265Y-27059165I0J-1222965D01*
G01*
X218468800Y-54768700D02*
X223107429Y-54768700D01*
X223567119Y-54309010D02*
X223567119Y-46059519D01*
X222393800Y-44886181D02*
G75*
G02*
X223567119Y-46059519I0J-1173319D01*
G01*
X223567100Y-54309010D02*
G75*
G02*
X223107429Y-54768700I-459700J10D01*
G01*
X228489473Y-73358979D02*
X228489473Y-65269373D01*
X223231300Y-73818700D02*
X228029752Y-73818700D01*
X228489500Y-73358979D02*
G75*
G02*
X228029752Y-73818700I-459700J-21D01*
G01*
X227156300Y-63936227D02*
G75*
G02*
X228489473Y-65269373I0J-1333173D01*
G01*
X237755263Y-92409018D02*
X237755263Y-84060163D01*
X232756300Y-92868700D02*
X237295581Y-92868700D01*
X237755300Y-92409018D02*
G75*
G02*
X237295581Y-92868700I-459700J18D01*
G01*
X236681300Y-82986237D02*
G75*
G02*
X237755263Y-84060163I0J-1073963D01*
G01*
X254187500Y-111918700D02*
X258690768Y-111918700D01*
X259150845Y-111458623D02*
X259150845Y-103074545D01*
X259150900Y-111458623D02*
G75*
G02*
X258690768Y-111918700I-460100J23D01*
G01*
X258112500Y-102036155D02*
G75*
G02*
X259150845Y-103074545I0J-1038345D01*
G01*
X246654708Y-35718700D02*
X242281300Y-35718700D01*
X247114216Y-26744116D02*
X247114216Y-35259192D01*
X246654708Y-35718716D02*
G75*
G03*
X247114216Y-35259192I-8J459516D01*
G01*
X247114200Y-26744116D02*
G75*
G03*
X246206300Y-25836200I-907900J16D01*
G01*
X237518800Y-54768700D02*
X242233395Y-54768700D01*
X242693245Y-54308850D02*
X242693245Y-46135645D01*
X241443800Y-44886155D02*
G75*
G02*
X242693245Y-46135645I0J-1249445D01*
G01*
X242693300Y-54308850D02*
G75*
G02*
X242233395Y-54768700I-459900J50D01*
G01*
X247281580Y-73359117D02*
X247281580Y-65011480D01*
X242281300Y-73818700D02*
X246821997Y-73818700D01*
X246206300Y-63936220D02*
G75*
G02*
X247281580Y-65011480I0J-1075280D01*
G01*
X247281600Y-73359117D02*
G75*
G02*
X246821997Y-73818700I-459600J17D01*
G01*
X256804765Y-92409026D02*
X256804765Y-84059665D01*
X251806300Y-92868700D02*
X256345091Y-92868700D01*
X256804800Y-92409026D02*
G75*
G02*
X256345091Y-92868700I-459700J26D01*
G01*
X255731300Y-82986235D02*
G75*
G02*
X256804765Y-84059665I0J-1073465D01*
G01*
X275618800Y-111918700D02*
X280199651Y-111918700D01*
X280658008Y-111460343D02*
X280658008Y-103150408D01*
X279543800Y-102036192D02*
G75*
G02*
X280658008Y-103150408I0J-1114208D01*
G01*
X280658000Y-111460343D02*
G75*
G02*
X280199651Y-111918700I-458400J43D01*
G01*
X265256300Y-28206962D02*
X265256300Y-25836200D01*
X261331300Y-35718700D02*
X262212950Y-35718700D01*
X263131680Y-28666200D02*
X264797062Y-28666200D01*
X262672699Y-35258951D02*
X262672699Y-29125181D01*
X262672700Y-35258951D02*
G75*
G02*
X262212950Y-35718700I-459700J-49D01*
G01*
X263131680Y-28666199D02*
G75*
G03*
X262672699Y-29125181I20J-459001D01*
G01*
X265256300Y-28206962D02*
G75*
G02*
X264797062Y-28666200I-459200J-38D01*
G01*
X261585913Y-54309550D02*
X261585913Y-45978313D01*
X256568800Y-54768700D02*
X261126763Y-54768700D01*
X261586000Y-54309550D02*
G75*
G02*
X261126763Y-54768700I-459200J50D01*
G01*
X260493800Y-44886187D02*
G75*
G02*
X261585913Y-45978313I0J-1092113D01*
G01*
X266440812Y-73358783D02*
X266440812Y-65120712D01*
X261331300Y-73818700D02*
X265980895Y-73818700D01*
X265256300Y-63936188D02*
G75*
G02*
X266440812Y-65120712I0J-1184512D01*
G01*
X266440800Y-73358783D02*
G75*
G02*
X265980895Y-73818700I-459900J-17D01*
G01*
X270856300Y-92868700D02*
X275403521Y-92868700D01*
X275863039Y-92409182D02*
X275863039Y-84067939D01*
X275863000Y-92409182D02*
G75*
G02*
X275403521Y-92868700I-459500J-18D01*
G01*
X274781300Y-82986161D02*
G75*
G02*
X275863039Y-84067939I0J-1081739D01*
G01*
X285209500Y-26739400D02*
X285209500Y-35259249D01*
X284750049Y-35718700D02*
X280381300Y-35718700D01*
X284750049Y-35718700D02*
G75*
G03*
X285209500Y-35259249I-49J459500D01*
G01*
X285209500Y-26739400D02*
G75*
G03*
X284306300Y-25836200I-903200J0D01*
G01*
X275618800Y-54768700D02*
X280146462Y-54768700D01*
X280606208Y-54308954D02*
X280606208Y-45948608D01*
X280606200Y-54308954D02*
G75*
G02*
X280146462Y-54768700I-459700J-46D01*
G01*
X279543800Y-44886192D02*
G75*
G02*
X280606208Y-45948608I0J-1062408D01*
G01*
X280381300Y-73818700D02*
X284941554Y-73818700D01*
X285400777Y-73359477D02*
X285400777Y-65030677D01*
X284306300Y-63936223D02*
G75*
G02*
X285400777Y-65030677I0J-1094477D01*
G01*
X285400800Y-73359477D02*
G75*
G02*
X284941554Y-73818700I-459200J-23D01*
G01*
X289906300Y-92868700D02*
X294500037Y-92868700D01*
X294959760Y-92408977D02*
X294959760Y-84114660D01*
X293831300Y-82986240D02*
G75*
G02*
X294959760Y-84114660I0J-1128460D01*
G01*
X294959700Y-92408977D02*
G75*
G02*
X294500037Y-92868700I-459700J-23D01*
G01*
X299431300Y-35718700D02*
X304174809Y-35718700D01*
X304634287Y-35259222D02*
X304634287Y-27114187D01*
X303356300Y-25836213D02*
G75*
G02*
X304634287Y-27114187I0J-1277987D01*
G01*
X304634300Y-35259222D02*
G75*
G02*
X304174809Y-35718700I-459500J22D01*
G01*
X299837273Y-54309345D02*
X299837273Y-46129673D01*
X294668800Y-54768700D02*
X299377918Y-54768700D01*
X299837300Y-54309345D02*
G75*
G02*
X299377918Y-54768700I-459400J45D01*
G01*
X298593800Y-44886227D02*
G75*
G02*
X299837273Y-46129673I0J-1243473D01*
G01*
X318481300Y-35718700D02*
X322709222Y-35718700D01*
X323169112Y-35258810D02*
X323169112Y-26599012D01*
X322406300Y-25836200D02*
X319286300Y-25836200D01*
X322406300Y-25836188D02*
G75*
G02*
X323169112Y-26599012I0J-762812D01*
G01*
X319246300Y-25876200D02*
G75*
G02*
X319286300Y-25836200I40000J0D01*
G01*
X323169100Y-35258810D02*
G75*
G02*
X322709222Y-35718700I-459900J10D01*
G01*
X316100000Y-54768700D02*
X320804429Y-54768700D01*
X321263665Y-54309464D02*
X321263665Y-46124865D01*
X321263600Y-54309464D02*
G75*
G02*
X320804429Y-54768700I-459200J-36D01*
G01*
X320025000Y-44886235D02*
G75*
G02*
X321263665Y-46124865I0J-1238665D01*
G01*
X299431300Y-73818700D02*
X304056086Y-73818700D01*
X304515649Y-73359137D02*
X304515649Y-65095549D01*
X303356300Y-63936151D02*
G75*
G02*
X304515649Y-65095549I0J-1159349D01*
G01*
X304515700Y-73359137D02*
G75*
G02*
X304056086Y-73818700I-459600J37D01*
G01*
X319246300Y-63976200D02*
X319246300Y-73053700D01*
X318481300Y-73818700D02*
G75*
G03*
X319246300Y-73053700I0J765000D01*
G01*
X318708312Y-92409245D02*
X318708312Y-84050712D01*
X313718800Y-92868700D02*
X318248857Y-92868700D01*
X318708400Y-92409245D02*
G75*
G02*
X318248857Y-92868700I-459500J45D01*
G01*
X317643800Y-82986188D02*
G75*
G02*
X318708312Y-84050712I0J-1064512D01*
G01*
D24*
X50553312Y-35380100D02*
X58270906Y-35380100D01*
X197643800Y-21075000D02*
X197643800Y-20972618D01*
X55004000Y-21721500D02*
X55004000Y-22382913D01*
X56022055Y-23367600D02*
X54019313Y-23367600D01*
X197643800Y-20983837D02*
X197643801Y-20968513D01*
X208864000Y-19974800D02*
X208864000Y-20140200D01*
X57863952Y-23367600D02*
X57945823Y-23367600D01*
X56022055Y-23367600D02*
X57863952Y-23367600D01*
X197643800Y-19974800D02*
X196634763Y-19974800D01*
X213234492Y-18940000D02*
X209493857Y-18940000D01*
X55004000Y-21721500D02*
X55004000Y-22349545D01*
X49924000Y-36941500D02*
X49924000Y-36009412D01*
X58899773Y-34751233D02*
X58899773Y-24336715D01*
X198641618Y-19974800D02*
X208698600Y-19974800D01*
X196634763Y-19974800D02*
X196650087Y-19974799D01*
X134458100Y-20488700D02*
X59529310Y-20488700D01*
X54019313Y-23367600D02*
X47802300Y-23367600D01*
X58899767Y-22413656D02*
X58899762Y-21118250D01*
X213864000Y-20140200D02*
X213864000Y-19569508D01*
X197643800Y-19974800D02*
X198641618Y-19974800D01*
X196634763Y-19974800D02*
X174459550Y-19974800D01*
X208864000Y-20140200D02*
X208864000Y-19569857D01*
X173831300Y-21075000D02*
X173831300Y-20603050D01*
X47384000Y-22949300D02*
X47384000Y-21721500D01*
X197643800Y-21075000D02*
X197643800Y-20983837D01*
X58899774Y-24336714D02*
X58899767Y-22413656D01*
X196650087Y-19974799D02*
G75*
G02*
X197643801Y-20968513I13J-993701D01*
G01*
X50553312Y-35380100D02*
G75*
G03*
X49924000Y-36009412I-12J-629300D01*
G01*
X208864000Y-19569857D02*
G75*
G02*
X209493857Y-18940000I629900J-43D01*
G01*
X58899774Y-24336714D02*
G75*
G03*
X58899773Y-24336715I0J-1D01*
G01*
X213234492Y-18940000D02*
G75*
G02*
X213864000Y-19569508I8J-629500D01*
G01*
X58899700Y-22413656D02*
G75*
G02*
X57945823Y-23367600I-953900J-44D01*
G01*
X47384000Y-22949300D02*
G75*
G03*
X47802300Y-23367600I418300J0D01*
G01*
X198641618Y-19974800D02*
G75*
G03*
X197643800Y-20972618I-18J-997800D01*
G01*
X56022055Y-23367600D02*
G75*
G02*
X55004000Y-22349545I45J1018100D01*
G01*
X58899800Y-34751233D02*
G75*
G02*
X58270906Y-35380100I-628900J33D01*
G01*
X173831300Y-20603050D02*
G75*
G02*
X174459550Y-19974800I628200J50D01*
G01*
X58899800Y-21118250D02*
G75*
G02*
X59529310Y-20488700I629500J50D01*
G01*
X58899800Y-24403394D02*
G75*
G03*
X57863952Y-23367600I-1035800J-6D01*
G01*
X54019313Y-23367600D02*
G75*
G03*
X55004000Y-22382913I-13J984700D01*
G01*
X208864000Y-20140200D02*
G75*
G03*
X208698600Y-19974800I-165400J0D01*
G01*
D23*
X22383800Y-28416200D02*
X22438801Y-28471201D01*
X166355200Y-35575000D02*
X166355200Y-36063925D01*
X166831300Y-47426200D02*
X166831300Y-66476200D01*
X22080695Y-85526200D02*
X22072783Y-85526200D01*
X166831300Y-66476200D02*
X166831300Y-71816094D01*
X166355200Y-26035000D02*
X166471300Y-26035000D01*
X166355200Y-35076805D02*
X166355200Y-26035000D01*
X22438801Y-47521201D02*
X22438801Y-62468904D01*
X185881300Y-104576200D02*
X185881300Y-85526200D01*
X21575000Y-86023983D02*
X21575000Y-85526200D01*
X185881300Y-81620727D02*
X185881300Y-85526200D01*
X174205030Y-75144068D02*
X181257589Y-75144068D01*
X22389000Y-66476200D02*
X21575000Y-66476200D01*
X22383800Y-47466200D02*
X22438801Y-47521201D01*
X22438801Y-28471201D02*
X22438801Y-47411199D01*
X26337500Y-85526200D02*
X22080695Y-85526200D01*
X167290206Y-72275000D02*
X173286099Y-72275000D01*
X173745846Y-72734747D02*
X173745846Y-74684884D01*
X192058743Y-81161000D02*
X186341027Y-81161000D01*
X22389000Y-28416200D02*
X22383800Y-28416200D01*
X182296110Y-73013800D02*
X192059208Y-73013800D01*
X22383800Y-47466200D02*
X22389000Y-47466200D01*
X20605332Y-63387561D02*
X20605332Y-65506532D01*
X166853395Y-35575000D02*
X166844125Y-35575000D01*
X192518254Y-73472846D02*
X192518254Y-80701489D01*
X21979363Y-62928342D02*
X21064551Y-62928342D01*
X166355200Y-36063925D02*
X166355200Y-46950100D01*
X21575000Y-85020505D02*
X21575000Y-66476200D01*
X21575000Y-104576200D02*
X21575000Y-86023983D01*
X171331300Y-35575000D02*
X166853395Y-35575000D01*
X166355200Y-35575000D02*
X166355200Y-35076805D01*
X181836418Y-74565239D02*
X181836391Y-73473531D01*
X21575000Y-66476200D02*
X22438801Y-65612399D01*
X21575000Y-85526200D02*
X21575000Y-85020505D01*
X185881300Y-81620727D02*
G75*
G02*
X186341027Y-81161000I459700J27D01*
G01*
X166355200Y-36063925D02*
G75*
G02*
X166844125Y-35575000I488900J25D01*
G01*
X21575000Y-86023983D02*
G75*
G02*
X22072783Y-85526200I497800J-17D01*
G01*
X174205030Y-75144054D02*
G75*
G02*
X173745846Y-74684884I-30J459154D01*
G01*
X192518200Y-73472846D02*
G75*
G03*
X192059208Y-73013800I-459000J46D01*
G01*
X20605342Y-63387561D02*
G75*
G02*
X21064551Y-62928342I459258J-39D01*
G01*
X182296110Y-73013791D02*
G75*
G03*
X181836391Y-73473531I-10J-459709D01*
G01*
X181836468Y-74565239D02*
G75*
G02*
X181257589Y-75144068I-578868J39D01*
G01*
X21575000Y-66476198D02*
G75*
G02*
X20605332Y-65506532I0J969668D01*
G01*
X22383800Y-47466201D02*
G75*
G03*
X22438801Y-47411199I0J55001D01*
G01*
X166831300Y-47426200D02*
G75*
G02*
X166355200Y-46950100I0J476100D01*
G01*
X21575000Y-66476201D02*
G75*
G03*
X22438801Y-65612399I0J863801D01*
G01*
X167290206Y-72275000D02*
G75*
G02*
X166831300Y-71816094I-6J458900D01*
G01*
X192058743Y-81161054D02*
G75*
G03*
X192518254Y-80701489I-43J459554D01*
G01*
X166355200Y-35076805D02*
G75*
G03*
X166853395Y-35575000I498200J5D01*
G01*
X21979363Y-62928301D02*
G75*
G03*
X22438801Y-62468904I37J459401D01*
G01*
X21575000Y-85020505D02*
G75*
G03*
X22080695Y-85526200I505700J5D01*
G01*
X173745800Y-72734747D02*
G75*
G03*
X173286099Y-72275000I-459700J47D01*
G01*
X185881300Y-43520347D02*
X185881300Y-47426200D01*
X216837500Y-104576200D02*
X216837500Y-95911540D01*
X192132250Y-72186500D02*
X193136490Y-72186500D01*
X39112770Y-52588216D02*
X44987266Y-52588216D01*
X38653800Y-47426200D02*
X38653800Y-52129246D01*
X69991473Y-90524800D02*
X67277743Y-90524800D01*
X216377560Y-95451600D02*
X186873917Y-95451600D01*
X192346860Y-58161500D02*
X186340779Y-58161500D01*
X197083000Y-35115812D02*
X197083000Y-31359833D01*
X204931300Y-90065081D02*
X204931300Y-85526200D01*
X193066534Y-72632688D02*
X193066534Y-85321096D01*
X39113199Y-36941500D02*
X39764000Y-36941500D01*
X195143800Y-35575000D02*
X195143800Y-42601679D01*
X186340894Y-53149900D02*
X192346993Y-53149900D01*
X43006300Y-85066886D02*
X43006300Y-66476200D01*
X195921300Y-90524800D02*
X204471581Y-90524800D01*
X186873423Y-90524800D02*
X195861799Y-90524800D01*
X43006300Y-28376200D02*
X43006300Y-32318441D01*
X186414820Y-94992503D02*
X186414820Y-90983403D01*
X43006300Y-62110116D02*
X43006300Y-66476200D01*
X196623367Y-30900200D02*
X190626742Y-30900200D01*
X40561156Y-36941500D02*
X39764000Y-36941500D01*
X190167700Y-30441158D02*
X190167700Y-26035000D01*
X43465565Y-32777706D02*
X44773208Y-32777706D01*
X52530129Y-90527974D02*
X52531300Y-90526803D01*
X193526438Y-85781000D02*
X195383159Y-85781000D01*
X185881300Y-66476200D02*
X185881300Y-71726906D01*
X45447200Y-53048150D02*
X45447200Y-61191176D01*
X45232838Y-33237336D02*
X45232838Y-35069682D01*
X186340894Y-72186500D02*
X192132250Y-72186500D01*
X192132250Y-72186500D02*
X192620346Y-72186500D01*
X44772437Y-35530083D02*
X41480381Y-35530083D01*
X195921300Y-86319141D02*
X195921300Y-90524800D01*
X192806571Y-53609478D02*
X192806571Y-57701789D01*
X185881300Y-58620979D02*
X185881300Y-66476200D01*
X66818800Y-90983743D02*
X66818800Y-104576200D01*
X52531300Y-85526200D02*
X43465614Y-85526200D01*
X185881300Y-47426200D02*
X185881300Y-52690306D01*
X38653800Y-47426200D02*
X38243800Y-47426200D01*
X194684479Y-43061000D02*
X186340647Y-43061000D01*
X41020429Y-35990035D02*
X41020429Y-36482227D01*
X52531300Y-90526803D02*
X52531300Y-85526200D01*
X190167700Y-26035000D02*
X190283800Y-26035000D01*
X44988476Y-61649900D02*
X43466516Y-61649900D01*
X38653800Y-47426200D02*
X38653800Y-37400899D01*
X195143800Y-35575000D02*
X196623812Y-35575000D01*
X190167700Y-30441158D02*
G75*
G03*
X190626742Y-30900200I459000J-42D01*
G01*
X43465565Y-32777700D02*
G75*
G02*
X43006300Y-32318441I35J459300D01*
G01*
X186340894Y-72186500D02*
G75*
G02*
X185881300Y-71726906I6J459600D01*
G01*
X41020483Y-35990035D02*
G75*
G02*
X41480381Y-35530083I459917J35D01*
G01*
X45447284Y-53048150D02*
G75*
G03*
X44987266Y-52588216I-459984J-50D01*
G01*
X193066500Y-72632688D02*
G75*
G03*
X192620346Y-72186500I-446200J-12D01*
G01*
X185881300Y-58620979D02*
G75*
G02*
X186340779Y-58161500I459500J-21D01*
G01*
X185881300Y-43520347D02*
G75*
G02*
X186340647Y-43061000I459300J47D01*
G01*
X66818800Y-90983743D02*
G75*
G02*
X67277743Y-90524800I458900J43D01*
G01*
X39113199Y-36941500D02*
G75*
G03*
X38653800Y-37400899I1J-459400D01*
G01*
X45232794Y-33237336D02*
G75*
G03*
X44773208Y-32777706I-459594J36D01*
G01*
X194684479Y-43061000D02*
G75*
G03*
X195143800Y-42601679I21J459300D01*
G01*
X216377560Y-95451600D02*
G75*
G02*
X216837500Y-95911540I40J-459900D01*
G01*
X186340894Y-53149900D02*
G75*
G02*
X185881300Y-52690306I6J459600D01*
G01*
X193526438Y-85780966D02*
G75*
G02*
X193066534Y-85321096I-38J459866D01*
G01*
X192806600Y-53609478D02*
G75*
G03*
X192346993Y-53149900I-459600J-22D01*
G01*
X204931300Y-90065081D02*
G75*
G02*
X204471581Y-90524800I-459700J-19D01*
G01*
X186873423Y-90524820D02*
G75*
G03*
X186414820Y-90983403I-23J-458580D01*
G01*
X44988476Y-61649900D02*
G75*
G03*
X45447200Y-61191176I24J458700D01*
G01*
X197083000Y-35115812D02*
G75*
G02*
X196623812Y-35575000I-459200J12D01*
G01*
X39112770Y-52588200D02*
G75*
G02*
X38653800Y-52129246I30J459000D01*
G01*
X192346860Y-58161471D02*
G75*
G03*
X192806571Y-57701789I40J459671D01*
G01*
X44772437Y-35530138D02*
G75*
G03*
X45232838Y-35069682I-37J460438D01*
G01*
X186414800Y-94992503D02*
G75*
G03*
X186873917Y-95451600I459100J3D01*
G01*
X195921300Y-86319141D02*
G75*
G03*
X195383159Y-85781000I-538100J41D01*
G01*
X43006300Y-85066886D02*
G75*
G03*
X43465614Y-85526200I459300J-14D01*
G01*
X196623367Y-30900200D02*
G75*
G02*
X197083000Y-31359833I33J-459600D01*
G01*
X40561156Y-36941429D02*
G75*
G03*
X41020429Y-36482227I44J459229D01*
G01*
X43006300Y-62110116D02*
G75*
G02*
X43466516Y-61649900I460200J16D01*
G01*
X223522514Y-80669300D02*
X224434339Y-80669300D01*
X209693800Y-39162090D02*
X209693800Y-47426200D01*
X223981300Y-81128086D02*
X223981300Y-81122339D01*
X214456300Y-80209462D02*
X214456300Y-66476200D01*
X57753326Y-58404903D02*
X61596815Y-58404903D01*
X224434339Y-80669300D02*
X238531662Y-80669300D01*
X244953137Y-98038294D02*
X239959183Y-98038294D01*
X239468794Y-81606432D02*
X239468794Y-97547905D01*
X245412500Y-104576200D02*
X245412500Y-98497657D01*
X62056300Y-66476200D02*
X62056300Y-71439600D01*
X210153395Y-28376200D02*
X214456300Y-28376200D01*
X72040334Y-97846400D02*
X87790732Y-97846400D01*
X223981300Y-85526200D02*
X223981300Y-81128086D01*
X88250000Y-98305668D02*
X88250000Y-104576200D01*
X209693800Y-66016887D02*
X209693800Y-47426200D01*
X71581300Y-85526200D02*
X69124269Y-85526200D01*
X57293800Y-47426200D02*
X57293800Y-57945377D01*
X223522514Y-80669300D02*
X214916138Y-80669300D01*
X62056300Y-58864388D02*
X62056300Y-66476200D01*
X214456300Y-66476200D02*
X210153113Y-66476200D01*
X57293800Y-47426200D02*
X57293800Y-39204000D01*
X209693800Y-39162090D02*
X209693800Y-28835795D01*
X62056300Y-38744396D02*
X62056300Y-28376200D01*
X57293800Y-39204000D02*
X61596696Y-39204000D01*
X68665207Y-72358297D02*
X68665207Y-85067138D01*
X62515700Y-71899000D02*
X68205910Y-71899000D01*
X71581300Y-85526200D02*
X71581300Y-97387366D01*
X57753326Y-58404900D02*
G75*
G02*
X57293800Y-57945377I-26J459500D01*
G01*
X239959183Y-98038306D02*
G75*
G02*
X239468794Y-97547905I17J490406D01*
G01*
X239468800Y-81606432D02*
G75*
G03*
X238531662Y-80669300I-937100J32D01*
G01*
X69124269Y-85526193D02*
G75*
G02*
X68665207Y-85067138I31J459093D01*
G01*
X224434339Y-80669300D02*
G75*
G03*
X223981300Y-81122339I-39J-453000D01*
G01*
X244953137Y-98038300D02*
G75*
G02*
X245412500Y-98497657I-37J-459400D01*
G01*
X62515700Y-71899000D02*
G75*
G02*
X62056300Y-71439600I0J459400D01*
G01*
X62056300Y-38744396D02*
G75*
G02*
X61596696Y-39204000I-459600J-4D01*
G01*
X214456300Y-80209462D02*
G75*
G03*
X214916138Y-80669300I459800J-38D01*
G01*
X209693800Y-66016887D02*
G75*
G03*
X210153113Y-66476200I459300J-13D01*
G01*
X62056297Y-58864388D02*
G75*
G03*
X61596815Y-58404903I-459497J-12D01*
G01*
X88250000Y-98305668D02*
G75*
G03*
X87790732Y-97846400I-459300J-32D01*
G01*
X223522514Y-80669300D02*
G75*
G02*
X223981300Y-81128086I-14J-458800D01*
G01*
X210153395Y-28376200D02*
G75*
G03*
X209693800Y-28835795I5J-459600D01*
G01*
X68665200Y-72358297D02*
G75*
G03*
X68205910Y-71899000I-459300J-3D01*
G01*
X72040334Y-97846400D02*
G75*
G02*
X71581300Y-97387366I-34J459000D01*
G01*
X233046561Y-38008467D02*
X228734271Y-38008467D01*
X228743800Y-47426200D02*
X228743800Y-59918884D01*
X240402603Y-72168880D02*
X240402603Y-85066698D01*
X90631300Y-79419200D02*
X90132970Y-79419200D01*
X90631300Y-79925942D02*
X90631299Y-79916783D01*
X91138042Y-79419200D02*
X105990733Y-79419200D01*
X76343800Y-38028700D02*
X76343800Y-47426200D01*
X90631300Y-79419200D02*
X91138042Y-79419200D01*
X233506300Y-28376200D02*
X233506300Y-37548728D01*
X243031300Y-85526200D02*
X243031300Y-96030441D01*
X228743800Y-47426200D02*
X228743800Y-38017996D01*
X233506300Y-60838214D02*
X233506300Y-66476200D01*
X243031300Y-85526200D02*
X240862105Y-85526200D01*
X90132970Y-79419200D02*
X81565620Y-79419200D01*
X90631300Y-80818700D02*
X90631300Y-79917530D01*
X81106300Y-57180693D02*
X81106300Y-66476200D01*
X243490659Y-96489800D02*
X266384403Y-96489800D01*
X90631300Y-85526200D02*
X90631300Y-80818700D01*
X76343800Y-47426200D02*
X76343800Y-56262093D01*
X88405300Y-38013519D02*
X88405300Y-33799759D01*
X87945641Y-33340100D02*
X81565256Y-33340100D01*
X233966011Y-71709164D02*
X239942887Y-71709164D01*
X90631300Y-80818700D02*
X90631300Y-79925942D01*
X106909756Y-91591153D02*
X115673141Y-91591153D01*
X116132434Y-92050446D02*
X116132434Y-103883634D01*
X81106300Y-32881144D02*
X81106300Y-28376200D01*
X266843800Y-96949197D02*
X266843800Y-104576200D01*
X91138042Y-79419200D02*
X91128883Y-79419199D01*
X81106300Y-78959880D02*
X81106300Y-66476200D01*
X76802907Y-56721200D02*
X80646807Y-56721200D01*
X229203521Y-60378605D02*
X233046691Y-60378605D01*
X233506300Y-66476200D02*
X233506300Y-71249453D01*
X88411881Y-38020100D02*
X88405300Y-38013519D01*
X106450254Y-79878721D02*
X106450254Y-91131651D01*
X106909756Y-91591246D02*
G75*
G02*
X106450254Y-91131651I44J459546D01*
G01*
X76802907Y-56721200D02*
G75*
G02*
X76343800Y-56262093I-7J459100D01*
G01*
X90132970Y-79419200D02*
G75*
G02*
X90631300Y-79917530I30J-498300D01*
G01*
X266843800Y-96949197D02*
G75*
G03*
X266384403Y-96489800I-459400J-3D01*
G01*
X233966011Y-71709200D02*
G75*
G02*
X233506300Y-71249453I-11J459700D01*
G01*
X243490659Y-96489800D02*
G75*
G02*
X243031300Y-96030441I41J459400D01*
G01*
X81106300Y-78959880D02*
G75*
G03*
X81565620Y-79419200I459300J-20D01*
G01*
X116825000Y-104576166D02*
G75*
G02*
X116132434Y-103883634I0J692566D01*
G01*
X81106300Y-32881144D02*
G75*
G03*
X81565256Y-33340100I459000J44D01*
G01*
X240862105Y-85526197D02*
G75*
G02*
X240402603Y-85066698I-5J459497D01*
G01*
X81106300Y-57180693D02*
G75*
G03*
X80646807Y-56721200I-459500J-7D01*
G01*
X229203521Y-60378600D02*
G75*
G02*
X228743800Y-59918884I-21J459700D01*
G01*
X233506295Y-60838214D02*
G75*
G03*
X233046691Y-60378605I-459595J14D01*
G01*
X233046561Y-38008400D02*
G75*
G03*
X233506300Y-37548728I39J459700D01*
G01*
X91128883Y-79419199D02*
G75*
G03*
X90631299Y-79916783I-83J-497501D01*
G01*
X116132347Y-92050446D02*
G75*
G03*
X115673141Y-91591153I-459247J46D01*
G01*
X106450200Y-79878721D02*
G75*
G03*
X105990733Y-79419200I-459500J21D01*
G01*
X240402636Y-72168880D02*
G75*
G03*
X239942887Y-71709164I-459736J-20D01*
G01*
X87945641Y-33340100D02*
G75*
G02*
X88405300Y-33799759I-41J-459700D01*
G01*
X228734271Y-38008500D02*
G75*
G02*
X228743800Y-38017996I29J-9500D01*
G01*
X253016222Y-22880192D02*
X271146803Y-22880192D01*
X109681300Y-77172114D02*
X109681300Y-85526200D01*
X96775368Y-28376200D02*
X100156300Y-28376200D01*
X117481100Y-95491399D02*
X117481100Y-90967899D01*
X100616194Y-60130000D02*
X101981557Y-60130000D01*
X247793800Y-28835782D02*
X247793800Y-47426200D01*
X262081300Y-77446569D02*
X262081300Y-85526200D01*
X96315900Y-40001972D02*
X96315900Y-28835668D01*
X100615609Y-76712366D02*
X109221552Y-76712366D01*
X254275618Y-60130000D02*
X253015903Y-60130000D01*
X117021601Y-90508400D02*
X110140662Y-90508400D01*
X248252939Y-53149900D02*
X254300442Y-53149900D01*
X252556300Y-60589603D02*
X252556300Y-66476200D01*
X100156300Y-66476200D02*
X100156300Y-60589894D01*
X271606300Y-23339689D02*
X271606300Y-28376200D01*
X92360600Y-41837500D02*
X92360600Y-46967069D01*
X253015991Y-76987200D02*
X261621931Y-76987200D01*
X254759895Y-53609353D02*
X254759895Y-59645723D01*
X247793800Y-47426200D02*
X247793800Y-52690761D01*
X95393800Y-47426200D02*
X92819731Y-47426200D01*
X252556300Y-66476200D02*
X252556300Y-76527509D01*
X252556300Y-28376200D02*
X252556300Y-23340114D01*
X100156300Y-66476200D02*
X100156300Y-76253057D01*
X147781300Y-95951100D02*
X117940801Y-95951100D01*
X147781300Y-104576200D02*
X147781300Y-95951100D01*
X252556300Y-28376200D02*
X248253382Y-28376200D01*
X109681300Y-90049038D02*
X109681300Y-85526200D01*
X95393800Y-51964899D02*
X95393800Y-47426200D01*
X101981709Y-52424800D02*
X95853701Y-52424800D01*
X102441324Y-59670233D02*
X102441324Y-52884415D01*
X254275618Y-60129995D02*
G75*
G03*
X254759895Y-59645723I-18J484295D01*
G01*
X92819731Y-47426200D02*
G75*
G02*
X92360600Y-46967069I-31J459100D01*
G01*
X100615609Y-76712400D02*
G75*
G02*
X100156300Y-76253057I-9J459300D01*
G01*
X262081300Y-77446569D02*
G75*
G03*
X261621931Y-76987200I-459400J-31D01*
G01*
X117021601Y-90508400D02*
G75*
G02*
X117481100Y-90967899I-1J-459500D01*
G01*
X271606308Y-23339689D02*
G75*
G03*
X271146803Y-22880192I-459508J-11D01*
G01*
X252556300Y-60589603D02*
G75*
G02*
X253015903Y-60130000I459600J3D01*
G01*
X95393800Y-51964899D02*
G75*
G03*
X95853701Y-52424800I459900J-1D01*
G01*
X100616194Y-60130000D02*
G75*
G03*
X100156300Y-60589894I6J-459900D01*
G01*
X109681334Y-77172114D02*
G75*
G03*
X109221552Y-76712366I-459734J14D01*
G01*
X254759900Y-53609353D02*
G75*
G03*
X254300442Y-53149900I-459500J-47D01*
G01*
X102441400Y-59670233D02*
G75*
G02*
X101981557Y-60130000I-459800J33D01*
G01*
X253016222Y-22880200D02*
G75*
G03*
X252556300Y-23340114I-22J-459900D01*
G01*
X253015991Y-76987200D02*
G75*
G02*
X252556300Y-76527509I9J459700D01*
G01*
X117481100Y-95491399D02*
G75*
G03*
X117940801Y-95951100I459700J-1D01*
G01*
X248252939Y-53149900D02*
G75*
G02*
X247793800Y-52690761I-39J459100D01*
G01*
X101981709Y-52424776D02*
G75*
G02*
X102441324Y-52884415I-9J-459624D01*
G01*
X96775368Y-28376200D02*
G75*
G03*
X96315900Y-28835668I32J-459500D01*
G01*
X247793800Y-28835782D02*
G75*
G02*
X248253382Y-28376200I459600J-18D01*
G01*
X109681300Y-90049038D02*
G75*
G03*
X110140662Y-90508400I459400J38D01*
G01*
X167304690Y-91273300D02*
X173297029Y-91273300D01*
X114443800Y-42646573D02*
X114443800Y-43213614D01*
X271606300Y-75716307D02*
X280671850Y-75716307D01*
X119206300Y-62020674D02*
X119206300Y-66476200D01*
X173756791Y-91733062D02*
X173756791Y-94580664D01*
X119300800Y-28376200D02*
X119300800Y-33236961D01*
X271606300Y-75716307D02*
X271606300Y-66476200D01*
X281131300Y-76175757D02*
X281131300Y-85526200D01*
X290656300Y-28376200D02*
X286353147Y-28376200D01*
X128731300Y-85526200D02*
X126563657Y-85526200D01*
X128731300Y-85526200D02*
X128731300Y-94646682D01*
X166845100Y-94590801D02*
X166845100Y-91732890D01*
X166845100Y-104576200D02*
X166845100Y-95736617D01*
X285893800Y-38422447D02*
X285893800Y-37929300D01*
X271606300Y-60589504D02*
X271606300Y-66476200D01*
X285893800Y-37423244D02*
X285893800Y-37929300D01*
X273697658Y-53284182D02*
X273697658Y-59841220D01*
X114443800Y-42066497D02*
X114443800Y-42646573D01*
X285893800Y-47426200D02*
X285893800Y-38422447D01*
X174215353Y-95039226D02*
X182312967Y-95039226D01*
X119206300Y-66476200D02*
X119206300Y-71810601D01*
X114443800Y-43213614D02*
X114443800Y-47426200D01*
X126105082Y-72729823D02*
X126105082Y-85067625D01*
X278963972Y-37929300D02*
X285387744Y-37929300D01*
X164455283Y-95100967D02*
X166321053Y-95100967D01*
X119665942Y-72270243D02*
X125645502Y-72270243D01*
X166845100Y-94590801D02*
X166845100Y-94642642D01*
X166845100Y-95736617D02*
X166845103Y-95625031D01*
X266843800Y-47426200D02*
X266843800Y-35377649D01*
X182772815Y-94579378D02*
X182772815Y-77757315D01*
X166831300Y-104576200D02*
X166845100Y-104576200D01*
X267302949Y-34918500D02*
X278045285Y-34918500D01*
X114443800Y-38655070D02*
X114443800Y-42066497D01*
X124947353Y-38195700D02*
X114903170Y-38195700D01*
X119206300Y-28376200D02*
X119300800Y-28376200D01*
X114903251Y-61561687D02*
X118747313Y-61561687D01*
X278504619Y-35377834D02*
X278504619Y-37469947D01*
X273408878Y-60130000D02*
X272065804Y-60130000D01*
X166845100Y-95736617D02*
X166845100Y-94590801D01*
X285893800Y-28835547D02*
X285893800Y-37423244D01*
X129185585Y-95100967D02*
X164455283Y-95100967D01*
X266843800Y-47426200D02*
X266843800Y-52365771D01*
X267302929Y-52824900D02*
X273238376Y-52824900D01*
X119758939Y-33695100D02*
X124947491Y-33695100D01*
X125406500Y-34154109D02*
X125406500Y-37736553D01*
X114443800Y-47426200D02*
X114443800Y-61102236D01*
X113792886Y-42562700D02*
X111268800Y-42562700D01*
X114443800Y-43213614D02*
G75*
G03*
X113792886Y-42562700I-650900J14D01*
G01*
X124947353Y-38195700D02*
G75*
G03*
X125406500Y-37736553I47J459100D01*
G01*
X267302929Y-52824900D02*
G75*
G02*
X266843800Y-52365771I-29J459100D01*
G01*
X271606300Y-60589504D02*
G75*
G02*
X272065804Y-60130000I459500J4D01*
G01*
X114443800Y-42646573D02*
G75*
G03*
X114359927Y-42562700I-83900J-27D01*
G01*
X173756800Y-91733062D02*
G75*
G03*
X173297029Y-91273300I-459800J-38D01*
G01*
X119758939Y-33695100D02*
G75*
G02*
X119300800Y-33236961I-39J458100D01*
G01*
X126105057Y-72729823D02*
G75*
G03*
X125645502Y-72270243I-459557J23D01*
G01*
X281131293Y-76175757D02*
G75*
G03*
X280671850Y-75716307I-459493J-43D01*
G01*
X119206313Y-62020674D02*
G75*
G03*
X118747313Y-61561687I-459013J-26D01*
G01*
X273408878Y-60129958D02*
G75*
G03*
X273697658Y-59841220I22J288758D01*
G01*
X285893800Y-37423244D02*
G75*
G02*
X285387744Y-37929300I-506100J44D01*
G01*
X278963972Y-37929281D02*
G75*
G02*
X278504619Y-37469947I28J459381D01*
G01*
X267302949Y-34918500D02*
G75*
G03*
X266843800Y-35377649I51J-459200D01*
G01*
X114443800Y-38655070D02*
G75*
G02*
X114903170Y-38195700I459400J-30D01*
G01*
X166845164Y-94642642D02*
G75*
G02*
X166386809Y-95100964I-458364J42D01*
G01*
X114443800Y-42066497D02*
G75*
G02*
X113947597Y-42562700I-496200J-3D01*
G01*
X126563657Y-85526218D02*
G75*
G02*
X126105082Y-85067625I43J458618D01*
G01*
X174215353Y-95039309D02*
G75*
G02*
X173756791Y-94580664I47J458609D01*
G01*
X114903251Y-61561700D02*
G75*
G02*
X114443800Y-61102236I49J459500D01*
G01*
X166845133Y-95625031D02*
G75*
G03*
X166321053Y-95100967I-524033J31D01*
G01*
X129185585Y-95100900D02*
G75*
G02*
X128731300Y-94646682I-85J454200D01*
G01*
X285893800Y-38422447D02*
G75*
G03*
X285400653Y-37929300I-493100J47D01*
G01*
X125406500Y-34154109D02*
G75*
G03*
X124947491Y-33695100I-459000J9D01*
G01*
X167304690Y-91273300D02*
G75*
G03*
X166845100Y-91732890I10J-459600D01*
G01*
X182772826Y-94579378D02*
G75*
G02*
X182312967Y-95039226I-459826J-22D01*
G01*
X285893800Y-28835547D02*
G75*
G02*
X286353147Y-28376200I459300J47D01*
G01*
X273697700Y-53284182D02*
G75*
G03*
X273238376Y-52824900I-459300J-18D01*
G01*
X278504600Y-35377834D02*
G75*
G03*
X278045285Y-34918500I-459300J34D01*
G01*
X119665942Y-72270200D02*
G75*
G02*
X119206300Y-71810601I-42J459600D01*
G01*
X290656300Y-71301955D02*
X290656300Y-66476200D01*
X313525000Y-65887500D02*
X313525000Y-53886392D01*
X307070119Y-42078773D02*
X307070119Y-47171369D01*
X147781300Y-66476200D02*
X147781300Y-47426200D01*
X298290036Y-76358353D02*
X298290036Y-72221037D01*
X297830498Y-71761499D02*
X291115844Y-71761499D01*
X147781300Y-35575000D02*
X147781300Y-47426200D01*
X147781300Y-78875000D02*
X147781300Y-78993434D01*
X301336500Y-76818069D02*
X298749752Y-76818069D01*
X309247077Y-41619427D02*
X307529465Y-41619427D01*
X166831300Y-85526200D02*
X166831300Y-78875000D01*
X309706300Y-28875101D02*
X309706300Y-41160204D01*
X147781300Y-78875000D02*
X147781300Y-77926474D01*
X313065083Y-53426475D02*
X307556971Y-53426475D01*
X143002235Y-35575000D02*
X147518800Y-35575000D01*
X147781300Y-77926474D02*
X147781300Y-66476200D01*
X147781300Y-78993434D02*
X147781300Y-85526200D01*
X301794950Y-85526200D02*
X304943800Y-85526200D01*
X142658800Y-26035000D02*
X142542700Y-26035000D01*
X301336500Y-76818069D02*
X301336500Y-85067750D01*
X166831300Y-78875000D02*
X166831300Y-78530000D01*
X307098901Y-52968405D02*
X307098901Y-47652349D01*
X142542700Y-26035000D02*
X142542700Y-35115465D01*
X147518800Y-35575000D02*
X147781300Y-35575000D01*
X166831300Y-78530000D02*
X148244734Y-78530000D01*
X147781300Y-77926474D02*
X147781297Y-78002369D01*
X310165201Y-28416200D02*
X312896300Y-28416200D01*
X298290131Y-76358353D02*
G75*
G03*
X298749752Y-76818069I459669J-47D01*
G01*
X309247077Y-41619400D02*
G75*
G03*
X309706300Y-41160204I23J459200D01*
G01*
X143002235Y-35575000D02*
G75*
G02*
X142542700Y-35115465I-35J459500D01*
G01*
X290656301Y-71301955D02*
G75*
G03*
X291115844Y-71761499I459499J-45D01*
G01*
X313525000Y-65887500D02*
G75*
G02*
X312896300Y-66516200I-628700J0D01*
G01*
X147781300Y-78993434D02*
G75*
G02*
X148244734Y-78530000I463400J34D01*
G01*
X307325000Y-47426201D02*
G75*
G03*
X307098901Y-47652349I0J-226099D01*
G01*
X147781297Y-78002369D02*
G75*
G03*
X148308931Y-78530003I527603J-31D01*
G01*
X297830498Y-71761464D02*
G75*
G02*
X298290036Y-72221037I2J-459536D01*
G01*
X307325000Y-47426281D02*
G75*
G02*
X307070119Y-47171369I0J254881D01*
G01*
X307098925Y-52968405D02*
G75*
G03*
X307556971Y-53426475I458075J5D01*
G01*
X310165201Y-28416200D02*
G75*
G03*
X309706300Y-28875101I-1J-458900D01*
G01*
X307070127Y-42078773D02*
G75*
G02*
X307529465Y-41619427I459373J-27D01*
G01*
X301794950Y-85526200D02*
G75*
G02*
X301336500Y-85067750I50J458500D01*
G01*
X313065083Y-53426500D02*
G75*
G02*
X313525000Y-53886392I17J-459900D01*
G01*
X52464000Y-21721500D02*
X52464000Y-19622755D01*
X52923255Y-19163500D02*
X152059394Y-19163500D01*
X152518800Y-19622906D02*
X152518800Y-21075000D01*
X152518800Y-19622906D02*
G75*
G03*
X152059394Y-19163500I-459400J6D01*
G01*
X52923255Y-19163500D02*
G75*
G03*
X52464000Y-19622755I45J-459300D01*
G01*
X171331300Y-19172601D02*
X171331300Y-21075000D01*
X27523298Y-18713300D02*
X170871999Y-18713300D01*
X27064000Y-21721500D02*
X27064000Y-19172598D01*
X27523298Y-18713300D02*
G75*
G03*
X27064000Y-19172598I2J-459300D01*
G01*
X171331300Y-19172601D02*
G75*
G03*
X170871999Y-18713300I-459300J1D01*
G01*
X140958100Y-35855873D02*
X140958100Y-20488700D01*
M02*
