M48
; DRILL file {KiCad (6.0.11-0)} date 
; FORMAT={-:-/ absolute / metric / decimal}
; #@! TF.CreationDate,2023-10-02T19:13:53+09:00
; #@! TF.GenerationSoftware,Kicad,Pcbnew,(6.0.11-0)
; #@! TF.FileFunction,Plated,1,2,PTH
FMAT,2
METRIC
; #@! TA.AperFunction,Plated,PTH,ViaDrill
T1C0.400
; #@! TA.AperFunction,Plated,PTH,ComponentDrill
T2C0.700
; #@! TA.AperFunction,Plated,PTH,ComponentDrill
T3C0.800
; #@! TA.AperFunction,Plated,PTH,ComponentDrill
T4C0.813
; #@! TA.AperFunction,Plated,PTH,ComponentDrill
T5C1.300
; #@! TA.AperFunction,Plated,PTH,ComponentDrill
T6C1.575
; #@! TA.AperFunction,Plated,PTH,ComponentDrill
T7C2.700
%
G90
G05
T1
X22.686Y-76.063
X43.477Y-56.892
X44.01Y-76.046
X52.53Y-90.528
X57.294Y-39.204
X58.619Y-56.908
X62.563Y-91.548
X64.335Y-76.055
X64.699Y-32.731
X69.991Y-90.525
X72.638Y-92.867
X76.344Y-38.029
X83.052Y-76.054
X88.412Y-38.02
X91.393Y-56.916
X92.361Y-41.837
X96.316Y-40.002
X101.553Y-73.825
X109.684Y-92.869
X111.269Y-42.563
X116.072Y-56.924
X117.771Y-33.284
X140.958Y-35.856
X145.844Y-30.992
X147.781Y-95.951
X148.809Y-73.817
X148.885Y-91.267
X149.177Y-56.934
X166.831Y-78.53
X168.136Y-30.992
X182.773Y-77.757
X186.908Y-75.833
X187.134Y-56.933
X187.139Y-91.878
X192.727Y-34.13
X195.862Y-90.525
X199.934Y-85.944
X199.96Y-92.958
X209.694Y-39.162
X211.119Y-56.926
X214.312Y-35.719
X215.181Y-73.838
X219.071Y-92.069
X228.734Y-38.008
X234.925Y-35.714
X243.756Y-92.867
X244.256Y-56.923
X252.873Y-37.149
X254.832Y-73.813
X262.081Y-79.558
X271.606Y-75.716
X272.607Y-73.819
X277.207Y-79.582
X301.337Y-76.818
X307.158Y-79.582
X309.469Y-56.916
X311.74Y-37.018
T4
X24.524Y-21.721
X24.524Y-36.941
X27.064Y-21.721
X27.064Y-36.941
X29.604Y-21.721
X29.604Y-36.941
X32.144Y-21.721
X32.144Y-36.941
X34.684Y-21.721
X34.684Y-36.941
X37.224Y-21.721
X37.224Y-36.941
X39.764Y-21.721
X39.764Y-36.941
X42.304Y-21.721
X42.304Y-36.941
X44.844Y-21.721
X44.844Y-36.941
X47.384Y-21.721
X47.384Y-36.941
X49.924Y-21.721
X49.924Y-36.941
X52.464Y-21.721
X52.464Y-36.941
X55.004Y-21.721
X55.004Y-36.941
T5
X134.458Y-20.489
X140.958Y-20.489
T6
X22.384Y-28.416
X22.384Y-47.466
X28.734Y-25.876
X28.734Y-44.926
X312.896Y-28.416
X312.896Y-66.516
X319.246Y-25.876
X319.246Y-63.976
T7
X144.469Y-28.575
X155.569Y-28.575
X168.281Y-28.575
X179.381Y-28.575
X192.094Y-28.575
X203.194Y-28.575
T2
G00X147.369Y-21.075
M15
G01X147.669Y-21.075
M16
G05
G00X147.369Y-35.575
M15
G01X147.669Y-35.575
M16
G05
G00X149.869Y-21.075
M15
G01X150.169Y-21.075
M16
G05
G00X152.369Y-21.075
M15
G01X152.669Y-21.075
M16
G05
G00X152.369Y-35.575
M15
G01X152.669Y-35.575
M16
G05
G00X171.181Y-21.075
M15
G01X171.481Y-21.075
M16
G05
G00X171.181Y-35.575
M15
G01X171.481Y-35.575
M16
G05
G00X173.681Y-21.075
M15
G01X173.981Y-21.075
M16
G05
G00X176.181Y-21.075
M15
G01X176.481Y-21.075
M16
G05
G00X176.181Y-35.575
M15
G01X176.481Y-35.575
M16
G05
G00X194.994Y-21.075
M15
G01X195.294Y-21.075
M16
G05
G00X194.994Y-35.575
M15
G01X195.294Y-35.575
M16
G05
G00X197.494Y-21.075
M15
G01X197.794Y-21.075
M16
G05
G00X199.994Y-21.075
M15
G01X200.294Y-21.075
M16
G05
G00X199.994Y-35.575
M15
G01X200.294Y-35.575
M16
G05
T3
G00X208.864Y-20.14
M15
G01X208.864Y-20.14
M16
G05
G00X211.364Y-20.14
M15
G01X211.364Y-20.14
M16
G05
G00X213.864Y-20.14
M15
G01X213.864Y-20.14
M16
G05
T0
M30
