M48
; DRILL file {KiCad (6.0.11-0)} date 
; FORMAT={-:-/ absolute / metric / decimal}
; #@! TF.CreationDate,2023-10-02T19:13:53+09:00
; #@! TF.GenerationSoftware,Kicad,Pcbnew,(6.0.11-0)
; #@! TF.FileFunction,NonPlated,1,2,NPTH
FMAT,2
METRIC
; #@! TA.AperFunction,NonPlated,NPTH,ComponentDrill
T1C1.900
; #@! TA.AperFunction,NonPlated,NPTH,ComponentDrill
T2C2.000
; #@! TA.AperFunction,NonPlated,NPTH,ComponentDrill
T3C3.000
; #@! TA.AperFunction,NonPlated,NPTH,ComponentDrill
T4C4.000
%
G90
G05
T1
X21.114Y-30.956
X21.114Y-50.006
X31.274Y-30.956
X31.274Y-50.006
X311.626Y-30.956
X311.626Y-69.056
X321.786Y-30.956
X321.786Y-69.056
T2
X23.495Y-69.056
X23.495Y-107.156
X28.258Y-88.106
X33.655Y-69.056
X33.655Y-107.156
X38.417Y-88.106
X40.164Y-50.006
X44.926Y-30.956
X44.926Y-69.056
X50.324Y-50.006
X54.451Y-88.106
X55.086Y-30.956
X55.086Y-69.056
X59.214Y-50.006
X63.976Y-30.956
X63.976Y-69.056
X64.611Y-88.106
X68.739Y-107.156
X69.374Y-50.006
X73.501Y-88.106
X74.136Y-30.956
X74.136Y-69.056
X78.264Y-50.006
X78.899Y-107.156
X83.026Y-30.956
X83.026Y-69.056
X83.661Y-88.106
X88.424Y-50.006
X90.17Y-107.156
X92.551Y-88.106
X93.186Y-30.956
X93.186Y-69.056
X97.314Y-50.006
X100.33Y-107.156
X102.076Y-30.956
X102.076Y-69.056
X102.711Y-88.106
X107.474Y-50.006
X111.601Y-88.106
X112.236Y-30.956
X112.236Y-69.056
X116.364Y-50.006
X118.745Y-107.156
X121.126Y-30.956
X121.126Y-69.056
X121.761Y-88.106
X126.524Y-50.006
X128.905Y-107.156
X130.651Y-88.106
X131.286Y-30.956
X131.286Y-69.056
X140.811Y-88.106
X149.701Y-50.006
X149.701Y-69.056
X149.701Y-88.106
X149.701Y-107.156
X159.861Y-50.006
X159.861Y-69.056
X159.861Y-88.106
X159.861Y-107.156
X168.751Y-50.006
X168.751Y-69.056
X168.751Y-88.106
X168.751Y-107.156
X178.911Y-50.006
X178.911Y-69.056
X178.911Y-88.106
X178.911Y-107.156
X187.801Y-50.006
X187.801Y-69.056
X187.801Y-88.106
X187.801Y-107.156
X197.961Y-50.006
X197.961Y-69.056
X197.961Y-88.106
X197.961Y-107.156
X206.851Y-88.106
X211.614Y-50.006
X216.376Y-30.956
X216.376Y-69.056
X217.011Y-88.106
X218.757Y-107.156
X221.774Y-50.006
X225.901Y-88.106
X226.536Y-30.956
X226.536Y-69.056
X228.917Y-107.156
X230.664Y-50.006
X235.426Y-30.956
X235.426Y-69.056
X236.061Y-88.106
X240.824Y-50.006
X244.951Y-88.106
X245.586Y-30.956
X245.586Y-69.056
X247.332Y-107.156
X249.714Y-50.006
X254.476Y-30.956
X254.476Y-69.056
X255.111Y-88.106
X257.493Y-107.156
X259.874Y-50.006
X264.001Y-88.106
X264.636Y-30.956
X264.636Y-69.056
X268.764Y-50.006
X268.764Y-107.156
X273.526Y-30.956
X273.526Y-69.056
X274.161Y-88.106
X278.924Y-50.006
X278.924Y-107.156
X283.051Y-88.106
X283.686Y-30.956
X283.686Y-69.056
X287.814Y-50.006
X292.576Y-30.956
X292.576Y-69.056
X293.211Y-88.106
X297.974Y-50.006
X302.736Y-30.956
X302.736Y-69.056
X306.864Y-88.106
X309.245Y-50.006
X317.024Y-88.106
X319.405Y-50.006
T3
X24.765Y-66.516
X24.765Y-104.616
X29.527Y-85.566
X31.115Y-63.976
X31.115Y-102.076
X35.877Y-83.026
X41.434Y-47.466
X46.196Y-28.416
X46.196Y-66.516
X47.784Y-44.926
X52.546Y-25.876
X52.546Y-63.976
X55.721Y-85.566
X60.484Y-47.466
X62.071Y-83.026
X65.246Y-28.416
X65.246Y-66.516
X66.834Y-44.926
X70.009Y-104.616
X71.596Y-25.876
X71.596Y-63.976
X74.771Y-85.566
X76.359Y-102.076
X79.534Y-47.466
X81.121Y-83.026
X84.296Y-28.416
X84.296Y-66.516
X85.884Y-44.926
X90.646Y-25.876
X90.646Y-63.976
X91.44Y-104.616
X93.821Y-85.566
X97.79Y-102.076
X98.584Y-47.466
X100.171Y-83.026
X103.346Y-28.416
X103.346Y-66.516
X104.934Y-44.926
X109.696Y-25.876
X109.696Y-63.976
X112.871Y-85.566
X117.634Y-47.466
X119.221Y-83.026
X120.015Y-104.616
X122.396Y-28.416
X122.396Y-66.516
X123.984Y-44.926
X126.365Y-102.076
X128.746Y-25.876
X128.746Y-63.976
X131.921Y-85.566
X138.271Y-83.026
X146.209Y-26.035
X150.971Y-47.466
X150.971Y-66.516
X150.971Y-85.566
X150.971Y-104.616
X152.559Y-23.495
X157.321Y-44.926
X157.321Y-63.976
X157.321Y-83.026
X157.321Y-102.076
X170.021Y-26.035
X170.021Y-47.466
X170.021Y-66.516
X170.021Y-85.566
X170.021Y-104.616
X176.371Y-23.495
X176.371Y-44.926
X176.371Y-63.976
X176.371Y-83.026
X176.371Y-102.076
X189.071Y-47.466
X189.071Y-66.516
X189.071Y-85.566
X189.071Y-104.616
X193.834Y-26.035
X195.421Y-44.926
X195.421Y-63.976
X195.421Y-83.026
X195.421Y-102.076
X200.184Y-23.495
X208.121Y-85.566
X212.884Y-47.466
X214.471Y-83.026
X217.646Y-28.416
X217.646Y-66.516
X219.234Y-44.926
X220.028Y-104.616
X223.996Y-25.876
X223.996Y-63.976
X226.377Y-102.076
X227.171Y-85.566
X231.934Y-47.466
X233.521Y-83.026
X236.696Y-28.416
X236.696Y-66.516
X238.284Y-44.926
X243.046Y-25.876
X243.046Y-63.976
X246.221Y-85.566
X248.602Y-104.616
X250.984Y-47.466
X252.571Y-83.026
X254.952Y-102.076
X255.746Y-28.416
X255.746Y-66.516
X257.334Y-44.926
X262.096Y-25.876
X262.096Y-63.976
X265.271Y-85.566
X270.034Y-47.466
X270.034Y-104.616
X271.621Y-83.026
X274.796Y-28.416
X274.796Y-66.516
X276.384Y-44.926
X276.384Y-102.076
X281.146Y-25.876
X281.146Y-63.976
X284.321Y-85.566
X289.084Y-47.466
X290.671Y-83.026
X293.846Y-28.416
X293.846Y-66.516
X295.434Y-44.926
X300.196Y-25.876
X300.196Y-63.976
X308.134Y-85.566
X310.515Y-47.466
X314.484Y-83.026
X316.865Y-44.926
T4
X26.194Y-30.956
X26.194Y-50.006
X28.575Y-69.056
X28.575Y-107.156
X33.337Y-88.106
X45.244Y-50.006
X50.006Y-30.956
X50.006Y-69.056
X59.531Y-88.106
X64.294Y-50.006
X69.056Y-30.956
X69.056Y-69.056
X73.819Y-107.156
X78.581Y-88.106
X83.344Y-50.006
X88.106Y-30.956
X88.106Y-69.056
X95.25Y-107.156
X97.631Y-88.106
X102.394Y-50.006
X107.156Y-30.956
X107.156Y-69.056
X116.681Y-88.106
X121.444Y-50.006
X123.825Y-107.156
X126.206Y-30.956
X126.206Y-69.056
X135.731Y-88.106
X150.019Y-28.575
X154.781Y-50.006
X154.781Y-69.056
X154.781Y-88.106
X154.781Y-107.156
X173.831Y-28.575
X173.831Y-50.006
X173.831Y-69.056
X173.831Y-88.106
X173.831Y-107.156
X192.881Y-50.006
X192.881Y-69.056
X192.881Y-88.106
X192.881Y-107.156
X197.644Y-28.575
X211.931Y-88.106
X216.694Y-50.006
X221.456Y-30.956
X221.456Y-69.056
X223.837Y-107.156
X230.981Y-88.106
X235.744Y-50.006
X240.506Y-30.956
X240.506Y-69.056
X250.031Y-88.106
X252.412Y-107.156
X254.794Y-50.006
X259.556Y-30.956
X259.556Y-69.056
X269.081Y-88.106
X273.844Y-50.006
X273.844Y-107.156
X278.606Y-30.956
X278.606Y-69.056
X288.131Y-88.106
X292.894Y-50.006
X297.656Y-30.956
X297.656Y-69.056
X311.944Y-88.106
X314.325Y-50.006
X316.706Y-30.956
X316.706Y-69.056
T0
M30
