G04 #@! TF.GenerationSoftware,KiCad,Pcbnew,(6.0.11-0)*
G04 #@! TF.CreationDate,2023-10-02T19:13:40+09:00*
G04 #@! TF.ProjectId,clavis,636c6176-6973-42e6-9b69-6361645f7063,rev?*
G04 #@! TF.SameCoordinates,Original*
G04 #@! TF.FileFunction,Soldermask,Bot*
G04 #@! TF.FilePolarity,Negative*
%FSLAX46Y46*%
G04 Gerber Fmt 4.6, Leading zero omitted, Abs format (unit mm)*
G04 Created by KiCad (PCBNEW (6.0.11-0)) date 2023-10-02 19:13:40*
%MOMM*%
%LPD*%
G01*
G04 APERTURE LIST*
G04 Aperture macros list*
%AMRoundRect*
0 Rectangle with rounded corners*
0 $1 Rounding radius*
0 $2 $3 $4 $5 $6 $7 $8 $9 X,Y pos of 4 corners*
0 Add a 4 corners polygon primitive as box body*
4,1,4,$2,$3,$4,$5,$6,$7,$8,$9,$2,$3,0*
0 Add four circle primitives for the rounded corners*
1,1,$1+$1,$2,$3*
1,1,$1+$1,$4,$5*
1,1,$1+$1,$6,$7*
1,1,$1+$1,$8,$9*
0 Add four rect primitives between the rounded corners*
20,1,$1+$1,$2,$3,$4,$5,0*
20,1,$1+$1,$4,$5,$6,$7,0*
20,1,$1+$1,$6,$7,$8,$9,0*
20,1,$1+$1,$8,$9,$2,$3,0*%
%AMFreePoly0*
4,1,22,1.150000,1.217000,1.242000,1.125000,1.275000,1.000000,1.275000,-0.378000,1.255000,-0.477000,1.196000,-0.560000,1.110000,-0.613000,0.807000,-0.752000,0.530000,-0.939000,0.287000,-1.167000,0.203000,-1.228000,0.102000,-1.250000,-1.025000,-1.250000,-1.150000,-1.217000,-1.242000,-1.125000,-1.275000,-1.000000,-1.275000,1.000000,-1.242000,1.125000,-1.150000,1.217000,-1.025000,1.250000,
1.025000,1.250000,1.150000,1.217000,1.150000,1.217000,$1*%
G04 Aperture macros list end*
%ADD10C,2.000000*%
%ADD11C,4.000000*%
%ADD12C,3.000000*%
%ADD13R,3.300000X3.000000*%
%ADD14C,1.900000*%
%ADD15C,2.800000*%
%ADD16R,1.300000X0.950000*%
%ADD17O,1.500000X1.500000*%
%ADD18O,1.600000X1.300000*%
%ADD19RoundRect,0.249600X-0.550400X-1.300400X0.550400X-1.300400X0.550400X1.300400X-0.550400X1.300400X0*%
%ADD20C,3.100000*%
%ADD21RoundRect,0.249600X-0.550400X-0.900400X0.550400X-0.900400X0.550400X0.900400X-0.550400X0.900400X0*%
%ADD22RoundRect,0.250000X-1.025000X-1.000000X1.025000X-1.000000X1.025000X1.000000X-1.025000X1.000000X0*%
%ADD23FreePoly0,0.000000*%
%ADD24C,1.524000*%
G04 APERTURE END LIST*
D10*
X44926300Y-69056200D03*
X55086300Y-69056200D03*
D11*
X50006300Y-69056200D03*
D12*
X46196300Y-66516200D03*
X52546300Y-63976200D03*
D13*
X42556300Y-66476200D03*
X56156300Y-63936200D03*
D10*
X74136300Y-30956200D03*
X63976300Y-30956200D03*
D12*
X71596300Y-25876200D03*
D11*
X69056300Y-30956200D03*
D12*
X65246300Y-28416200D03*
D13*
X61606300Y-28376200D03*
X75206300Y-25836200D03*
D10*
X33655000Y-69056200D03*
D11*
X28575000Y-69056200D03*
D12*
X24765000Y-66516200D03*
D10*
X23495000Y-69056200D03*
D12*
X31115000Y-63976200D03*
D13*
X21125000Y-66476200D03*
X34725000Y-63936200D03*
D11*
X26193800Y-50006200D03*
D14*
X31273800Y-50006200D03*
X21113800Y-50006200D03*
D15*
X22383800Y-47466200D03*
X28733800Y-44926200D03*
D10*
X38417500Y-88106200D03*
D12*
X35877500Y-83026200D03*
X29527500Y-85566200D03*
D11*
X33337500Y-88106200D03*
D10*
X28257500Y-88106200D03*
D13*
X25887500Y-85526200D03*
X39487500Y-82986200D03*
D10*
X78898800Y-107156200D03*
D11*
X73818800Y-107156200D03*
D12*
X76358800Y-102076200D03*
D10*
X68738800Y-107156200D03*
D12*
X70008800Y-104616200D03*
D13*
X66368800Y-104576200D03*
X79968800Y-102036200D03*
D12*
X62071300Y-83026200D03*
D10*
X54451300Y-88106200D03*
D12*
X55721300Y-85566200D03*
D11*
X59531300Y-88106200D03*
D10*
X64611300Y-88106200D03*
D13*
X52081300Y-85526200D03*
X65681300Y-82986200D03*
D10*
X69373800Y-50006200D03*
D11*
X64293800Y-50006200D03*
D12*
X66833800Y-44926200D03*
D10*
X59213800Y-50006200D03*
D12*
X60483800Y-47466200D03*
D13*
X56843800Y-47426200D03*
X70443800Y-44886200D03*
D10*
X83026300Y-30956200D03*
D12*
X84296300Y-28416200D03*
D11*
X88106300Y-30956200D03*
D12*
X90646300Y-25876200D03*
D10*
X93186300Y-30956200D03*
D13*
X80656300Y-28376200D03*
X94256300Y-25836200D03*
D10*
X63976300Y-69056200D03*
D12*
X71596300Y-63976200D03*
X65246300Y-66516200D03*
D10*
X74136300Y-69056200D03*
D11*
X69056300Y-69056200D03*
D13*
X61606300Y-66476200D03*
X75206300Y-63936200D03*
D10*
X83661300Y-88106200D03*
X73501300Y-88106200D03*
D12*
X74771300Y-85566200D03*
D11*
X78581300Y-88106200D03*
D12*
X81121300Y-83026200D03*
D13*
X71131300Y-85526200D03*
X84731300Y-82986200D03*
D12*
X85883800Y-44926200D03*
D10*
X88423800Y-50006200D03*
D12*
X79533800Y-47466200D03*
D10*
X78263800Y-50006200D03*
D11*
X83343800Y-50006200D03*
D13*
X75893800Y-47426200D03*
X89493800Y-44886200D03*
D10*
X92551300Y-88106200D03*
X102711300Y-88106200D03*
D12*
X100171300Y-83026200D03*
D11*
X97631300Y-88106200D03*
D12*
X93821300Y-85566200D03*
D13*
X90181300Y-85526200D03*
X103781300Y-82986200D03*
D10*
X112236300Y-30956200D03*
D12*
X103346300Y-28416200D03*
X109696300Y-25876200D03*
D10*
X102076300Y-30956200D03*
D11*
X107156300Y-30956200D03*
D13*
X99706300Y-28376200D03*
X113306300Y-25836200D03*
D11*
X88106300Y-69056200D03*
D12*
X90646300Y-63976200D03*
D10*
X93186300Y-69056200D03*
X83026300Y-69056200D03*
D12*
X84296300Y-66516200D03*
D13*
X80656300Y-66476200D03*
X94256300Y-63936200D03*
D10*
X97313800Y-50006200D03*
D11*
X102393800Y-50006200D03*
D10*
X107473800Y-50006200D03*
D12*
X98583800Y-47466200D03*
X104933800Y-44926200D03*
D13*
X94943800Y-47426200D03*
X108543800Y-44886200D03*
D11*
X126206300Y-30956200D03*
D12*
X128746300Y-25876200D03*
D10*
X121126300Y-30956200D03*
D12*
X122396300Y-28416200D03*
D10*
X131286300Y-30956200D03*
D13*
X118756300Y-28376200D03*
X132356300Y-25836200D03*
D10*
X149701300Y-88106200D03*
D12*
X157321300Y-83026200D03*
X150971300Y-85566200D03*
D10*
X159861300Y-88106200D03*
D11*
X154781300Y-88106200D03*
D13*
X147331300Y-85526200D03*
X160931300Y-82986200D03*
D10*
X112236300Y-69056200D03*
D11*
X107156300Y-69056200D03*
D12*
X109696300Y-63976200D03*
D10*
X102076300Y-69056200D03*
D12*
X103346300Y-66516200D03*
D13*
X99706300Y-66476200D03*
X113306300Y-63936200D03*
D12*
X123983800Y-44926200D03*
X117633800Y-47466200D03*
D10*
X126523800Y-50006200D03*
X116363800Y-50006200D03*
D11*
X121443800Y-50006200D03*
D13*
X113993800Y-47426200D03*
X127593800Y-44886200D03*
D10*
X130651300Y-88106200D03*
X140811300Y-88106200D03*
D12*
X138271300Y-83026200D03*
X131921300Y-85566200D03*
D11*
X135731300Y-88106200D03*
D13*
X128281300Y-85526200D03*
X141881300Y-82986200D03*
D10*
X159861300Y-50006200D03*
D12*
X150971300Y-47466200D03*
X157321300Y-44926200D03*
D10*
X149701300Y-50006200D03*
D11*
X154781300Y-50006200D03*
D13*
X147331300Y-47426200D03*
X160931300Y-44886200D03*
D10*
X159861300Y-69056200D03*
D12*
X157321300Y-63976200D03*
D11*
X154781300Y-69056200D03*
D12*
X150971300Y-66516200D03*
D10*
X149701300Y-69056200D03*
D13*
X147331300Y-66476200D03*
X160931300Y-63936200D03*
D11*
X116681300Y-88106200D03*
D10*
X111601300Y-88106200D03*
X121761300Y-88106200D03*
D12*
X112871300Y-85566200D03*
X119221300Y-83026200D03*
D13*
X109231300Y-85526200D03*
X122831300Y-82986200D03*
D12*
X128746300Y-63976200D03*
D11*
X126206300Y-69056200D03*
D10*
X131286300Y-69056200D03*
X121126300Y-69056200D03*
D12*
X122396300Y-66516200D03*
D13*
X118756300Y-66476200D03*
X132356300Y-63936200D03*
D12*
X189071300Y-66516200D03*
X195421300Y-63976200D03*
D10*
X197961300Y-69056200D03*
D11*
X192881300Y-69056200D03*
D10*
X187801300Y-69056200D03*
D13*
X185431300Y-66476200D03*
X199031300Y-63936200D03*
D12*
X176371300Y-83026200D03*
D11*
X173831300Y-88106200D03*
D10*
X168751300Y-88106200D03*
D12*
X170021300Y-85566200D03*
D10*
X178911300Y-88106200D03*
D13*
X166381300Y-85526200D03*
X179981300Y-82986200D03*
D11*
X240506300Y-30956200D03*
D12*
X243046300Y-25876200D03*
D10*
X235426300Y-30956200D03*
X245586300Y-30956200D03*
D12*
X236696300Y-28416200D03*
D13*
X233056300Y-28376200D03*
X246656300Y-25836200D03*
D12*
X262096300Y-63976200D03*
X255746300Y-66516200D03*
D10*
X264636300Y-69056200D03*
X254476300Y-69056200D03*
D11*
X259556300Y-69056200D03*
D13*
X252106300Y-66476200D03*
X265706300Y-63936200D03*
D11*
X173831300Y-69056200D03*
D12*
X176371300Y-63976200D03*
X170021300Y-66516200D03*
D10*
X178911300Y-69056200D03*
X168751300Y-69056200D03*
D13*
X166381300Y-66476200D03*
X179981300Y-63936200D03*
D12*
X274796300Y-28416200D03*
D10*
X273526300Y-30956200D03*
D11*
X278606300Y-30956200D03*
D12*
X281146300Y-25876200D03*
D10*
X283686300Y-30956200D03*
D13*
X271156300Y-28376200D03*
X284756300Y-25836200D03*
D11*
X192881300Y-88106200D03*
D10*
X187801300Y-88106200D03*
D12*
X189071300Y-85566200D03*
D10*
X197961300Y-88106200D03*
D12*
X195421300Y-83026200D03*
D13*
X185431300Y-85526200D03*
X199031300Y-82986200D03*
D12*
X176371300Y-44926200D03*
D11*
X173831300Y-50006200D03*
D12*
X170021300Y-47466200D03*
D10*
X178911300Y-50006200D03*
X168751300Y-50006200D03*
D13*
X166381300Y-47426200D03*
X179981300Y-44886200D03*
D11*
X269081300Y-88106200D03*
D10*
X274161300Y-88106200D03*
X264001300Y-88106200D03*
D12*
X271621300Y-83026200D03*
X265271300Y-85566200D03*
D13*
X261631300Y-85526200D03*
X275231300Y-82986200D03*
D10*
X197961300Y-50006200D03*
D12*
X189071300Y-47466200D03*
X195421300Y-44926200D03*
D11*
X192881300Y-50006200D03*
D10*
X187801300Y-50006200D03*
D13*
X185431300Y-47426200D03*
X199031300Y-44886200D03*
D11*
X311943800Y-88106200D03*
D10*
X306863800Y-88106200D03*
X317023800Y-88106200D03*
D12*
X308133800Y-85566200D03*
X314483800Y-83026200D03*
D13*
X304493800Y-85526200D03*
X318093800Y-82986200D03*
D12*
X270033800Y-47466200D03*
D10*
X268763800Y-50006200D03*
D11*
X273843800Y-50006200D03*
D12*
X276383800Y-44926200D03*
D10*
X278923800Y-50006200D03*
D13*
X266393800Y-47426200D03*
X279993800Y-44886200D03*
D12*
X300196300Y-25876200D03*
D10*
X292576300Y-30956200D03*
X302736300Y-30956200D03*
D11*
X297656300Y-30956200D03*
D12*
X293846300Y-28416200D03*
D13*
X290206300Y-28376200D03*
X303806300Y-25836200D03*
D12*
X281146300Y-63976200D03*
D10*
X283686300Y-69056200D03*
X273526300Y-69056200D03*
D11*
X278606300Y-69056200D03*
D12*
X274796300Y-66516200D03*
D13*
X271156300Y-66476200D03*
X284756300Y-63936200D03*
D12*
X284321300Y-85566200D03*
D10*
X283051300Y-88106200D03*
D12*
X290671300Y-83026200D03*
D11*
X288131300Y-88106200D03*
D10*
X293211300Y-88106200D03*
D13*
X280681300Y-85526200D03*
X294281300Y-82986200D03*
D14*
X321786300Y-69056200D03*
D11*
X316706300Y-69056200D03*
D14*
X311626300Y-69056200D03*
D15*
X312896300Y-66516200D03*
X319246300Y-63976200D03*
D12*
X300196300Y-63976200D03*
D10*
X302736300Y-69056200D03*
D11*
X297656300Y-69056200D03*
D12*
X293846300Y-66516200D03*
D10*
X292576300Y-69056200D03*
D13*
X290206300Y-66476200D03*
X303806300Y-63936200D03*
D12*
X289083800Y-47466200D03*
D10*
X297973800Y-50006200D03*
D11*
X292893800Y-50006200D03*
D10*
X287813800Y-50006200D03*
D12*
X295433800Y-44926200D03*
D13*
X285443800Y-47426200D03*
X299043800Y-44886200D03*
D10*
X259873800Y-50006200D03*
D12*
X257333800Y-44926200D03*
D10*
X249713800Y-50006200D03*
D11*
X254793800Y-50006200D03*
D12*
X250983800Y-47466200D03*
D13*
X247343800Y-47426200D03*
X260943800Y-44886200D03*
D11*
X211931300Y-88106200D03*
D12*
X214471300Y-83026200D03*
D10*
X217011300Y-88106200D03*
X206851300Y-88106200D03*
D12*
X208121300Y-85566200D03*
D13*
X204481300Y-85526200D03*
X218081300Y-82986200D03*
D10*
X319405000Y-50006250D03*
D12*
X316865000Y-44926250D03*
D10*
X309245000Y-50006250D03*
D12*
X310515000Y-47466250D03*
D11*
X314325000Y-50006250D03*
D13*
X306875000Y-47426250D03*
X320475000Y-44886250D03*
D12*
X157321300Y-102076200D03*
D11*
X154781300Y-107156200D03*
D12*
X150971300Y-104616200D03*
D10*
X149701300Y-107156200D03*
X159861300Y-107156200D03*
D13*
X147331300Y-104576200D03*
X160931300Y-102036200D03*
D10*
X168751300Y-107156200D03*
D12*
X176371300Y-102076200D03*
D11*
X173831300Y-107156200D03*
D10*
X178911300Y-107156200D03*
D12*
X170021300Y-104616200D03*
D13*
X166381300Y-104576200D03*
X179981300Y-102036200D03*
D12*
X195421300Y-102076200D03*
D10*
X197961300Y-107156200D03*
D12*
X189071300Y-104616200D03*
D11*
X192881300Y-107156200D03*
D10*
X187801300Y-107156200D03*
D13*
X185431300Y-104576200D03*
X199031300Y-102036200D03*
D16*
X81568800Y-54768700D03*
X85118800Y-54768700D03*
X105381300Y-35718700D03*
X108931300Y-35718700D03*
X114906300Y-92868700D03*
X118456300Y-92868700D03*
X119668800Y-54768700D03*
X123218800Y-54768700D03*
X280381300Y-73818700D03*
X276831300Y-73818700D03*
X313718800Y-92868700D03*
X310168800Y-92868700D03*
X95856300Y-92868700D03*
X99406300Y-92868700D03*
X172056300Y-92868700D03*
X175606300Y-92868700D03*
X124431300Y-35718700D03*
X127981300Y-35718700D03*
D14*
X21113800Y-30956200D03*
X31273800Y-30956200D03*
D11*
X26193800Y-30956200D03*
D15*
X22383800Y-28416200D03*
X28733800Y-25876200D03*
D16*
X148243800Y-32858000D03*
X151793800Y-32858000D03*
D10*
X264636300Y-30956200D03*
D11*
X259556300Y-30956200D03*
D12*
X262096300Y-25876200D03*
D10*
X254476300Y-30956200D03*
D12*
X255746300Y-28416200D03*
D13*
X252106300Y-28376200D03*
X265706300Y-25836200D03*
D17*
X211364000Y-20140200D03*
X213864000Y-20140200D03*
X208864000Y-20140200D03*
D16*
X86331300Y-73818700D03*
X89881300Y-73818700D03*
X26800000Y-73818700D03*
X30350000Y-73818700D03*
X31562500Y-92868700D03*
X35112500Y-92868700D03*
X270856300Y-92868700D03*
X267306300Y-92868700D03*
X194656300Y-92868700D03*
X191106300Y-92868700D03*
X100618800Y-54768700D03*
X104168800Y-54768700D03*
X172056300Y-111918700D03*
X175606300Y-111918700D03*
D11*
X250031300Y-88106200D03*
D12*
X246221300Y-85566200D03*
D10*
X244951300Y-88106200D03*
X255111300Y-88106200D03*
D12*
X252571300Y-83026200D03*
D13*
X242581300Y-85526200D03*
X256181300Y-82986200D03*
D16*
X242281300Y-73818700D03*
X238731300Y-73818700D03*
D10*
X225901300Y-88106200D03*
D12*
X227171300Y-85566200D03*
D11*
X230981300Y-88106200D03*
D12*
X233521300Y-83026200D03*
D10*
X236061300Y-88106200D03*
D13*
X223531300Y-85526200D03*
X237131300Y-82986200D03*
D16*
X122050000Y-111918700D03*
X125600000Y-111918700D03*
X237518800Y-54768700D03*
X233968800Y-54768700D03*
X218468800Y-54768700D03*
X214918800Y-54768700D03*
D11*
X197643800Y-28575000D03*
D12*
X200183800Y-23495000D03*
X193833800Y-26035000D03*
D18*
X200143800Y-21075000D03*
X195143800Y-21075000D03*
X197643800Y-21075000D03*
D19*
X203993800Y-28575000D03*
D20*
X203193800Y-28575000D03*
X192093800Y-28575000D03*
D21*
X191293800Y-28975000D03*
D18*
X200143800Y-35575000D03*
D22*
X203733800Y-23495000D03*
D18*
X195143800Y-35575000D03*
D23*
X190283800Y-26035000D03*
D16*
X67281300Y-35718700D03*
X70831300Y-35718700D03*
X280381300Y-35718700D03*
X276831300Y-35718700D03*
D11*
X50006300Y-30956200D03*
D10*
X44926300Y-30956200D03*
X55086300Y-30956200D03*
D12*
X46196300Y-28416200D03*
X52546300Y-25876200D03*
D13*
X42556300Y-28376200D03*
X56156300Y-25836200D03*
D16*
X299431300Y-35718700D03*
X295881300Y-35718700D03*
D12*
X152558800Y-23495000D03*
X146208800Y-26035000D03*
D11*
X150018800Y-28575000D03*
D18*
X152518800Y-21075000D03*
X147518800Y-21075000D03*
X150018800Y-21075000D03*
D21*
X143668800Y-28975000D03*
D20*
X144468800Y-28575000D03*
D19*
X156368800Y-28575000D03*
D20*
X155568800Y-28575000D03*
D18*
X152518800Y-35575000D03*
D22*
X156108800Y-23495000D03*
D18*
X147518800Y-35575000D03*
D23*
X142658800Y-26035000D03*
D16*
X175606300Y-32846700D03*
X172056300Y-32846700D03*
D12*
X276383800Y-102076200D03*
D10*
X268763800Y-107156200D03*
D12*
X270033800Y-104616200D03*
D10*
X278923800Y-107156200D03*
D11*
X273843800Y-107156200D03*
D13*
X266393800Y-104576200D03*
X279993800Y-102036200D03*
D16*
X275618800Y-111918700D03*
X272068800Y-111918700D03*
X175606300Y-73818700D03*
X172056300Y-73818700D03*
X105381300Y-73818700D03*
X108931300Y-73818700D03*
D12*
X217646300Y-28416200D03*
D11*
X221456300Y-30956200D03*
D10*
X226536300Y-30956200D03*
X216376300Y-30956200D03*
D12*
X223996300Y-25876200D03*
D13*
X214006300Y-28376200D03*
X227606300Y-25836200D03*
D16*
X261331300Y-73818700D03*
X257781300Y-73818700D03*
X153006300Y-111918700D03*
X156556300Y-111918700D03*
X62518800Y-54768700D03*
X66068800Y-54768700D03*
D11*
X316706300Y-30956200D03*
D14*
X321786300Y-30956200D03*
X311626300Y-30956200D03*
D15*
X312896300Y-28416200D03*
X319246300Y-25876200D03*
D16*
X261331300Y-35718700D03*
X257781300Y-35718700D03*
X26800000Y-111918700D03*
X30350000Y-111918700D03*
X124431300Y-73818700D03*
X127981300Y-73818700D03*
X256568800Y-54768700D03*
X253018800Y-54768700D03*
X133956300Y-92868700D03*
X137506300Y-92868700D03*
X318481300Y-73818700D03*
X314931300Y-73818700D03*
D12*
X220027500Y-104616200D03*
X226377500Y-102076200D03*
D10*
X218757500Y-107156200D03*
X228917500Y-107156200D03*
D11*
X223837500Y-107156200D03*
D13*
X216387500Y-104576200D03*
X229987500Y-102036200D03*
D16*
X251806300Y-92868700D03*
X248256300Y-92868700D03*
X57756300Y-92868700D03*
X61306300Y-92868700D03*
X294668800Y-54768700D03*
X291118800Y-54768700D03*
X43468800Y-54768700D03*
X47018800Y-54768700D03*
D10*
X235426300Y-69056200D03*
D12*
X236696300Y-66516200D03*
D11*
X240506300Y-69056200D03*
D12*
X243046300Y-63976200D03*
D10*
X245586300Y-69056200D03*
D13*
X233056300Y-66476200D03*
X246656300Y-63936200D03*
D16*
X289906300Y-92868700D03*
X286356300Y-92868700D03*
D10*
X140958100Y-20488700D03*
X134458100Y-20488700D03*
D12*
X212883800Y-47466200D03*
X219233800Y-44926200D03*
D10*
X221773800Y-50006200D03*
D11*
X216693800Y-50006200D03*
D10*
X211613800Y-50006200D03*
D13*
X209243800Y-47426200D03*
X222843800Y-44886200D03*
D16*
X194656300Y-73818700D03*
X191106300Y-73818700D03*
X299431300Y-73818700D03*
X295881300Y-73818700D03*
X199418800Y-32860000D03*
X195868800Y-32860000D03*
X223231300Y-73818700D03*
X219681300Y-73818700D03*
X194656300Y-54768700D03*
X191106300Y-54768700D03*
X153006300Y-73818700D03*
X156556300Y-73818700D03*
D11*
X252412500Y-107156200D03*
D12*
X254952500Y-102076200D03*
D10*
X257492500Y-107156200D03*
X247332500Y-107156200D03*
D12*
X248602500Y-104616200D03*
D13*
X244962500Y-104576200D03*
X258562500Y-102036200D03*
D16*
X48231300Y-73818700D03*
X51781300Y-73818700D03*
X24418800Y-54768700D03*
X27968800Y-54768700D03*
X225612500Y-111918700D03*
X222062500Y-111918700D03*
X72043800Y-111918700D03*
X75593800Y-111918700D03*
X223231300Y-35718700D03*
X219681300Y-35718700D03*
X318481300Y-35718700D03*
X314931300Y-35718700D03*
X93475000Y-111918700D03*
X97025000Y-111918700D03*
X67281300Y-73818700D03*
X70831300Y-73818700D03*
X86331300Y-35718700D03*
X89881300Y-35718700D03*
D12*
X41433800Y-47466200D03*
X47783800Y-44926200D03*
D11*
X45243800Y-50006200D03*
D10*
X40163800Y-50006200D03*
X50323800Y-50006200D03*
D13*
X37793800Y-47426200D03*
X51393800Y-44886200D03*
D16*
X316100000Y-54768700D03*
X312550000Y-54768700D03*
X175606300Y-54768700D03*
X172056300Y-54768700D03*
D12*
X217646300Y-66516200D03*
D10*
X226536300Y-69056200D03*
D12*
X223996300Y-63976200D03*
D11*
X221456300Y-69056200D03*
D10*
X216376300Y-69056200D03*
D13*
X214006300Y-66476200D03*
X227606300Y-63936200D03*
D16*
X194656300Y-111918700D03*
X191106300Y-111918700D03*
X213706300Y-92868700D03*
X210156300Y-92868700D03*
D11*
X235743800Y-50006200D03*
D12*
X238283800Y-44926200D03*
D10*
X240823800Y-50006200D03*
D12*
X231933800Y-47466200D03*
D10*
X230663800Y-50006200D03*
D13*
X228293800Y-47426200D03*
X241893800Y-44886200D03*
D16*
X254187500Y-111918700D03*
X250637500Y-111918700D03*
D10*
X128905000Y-107156200D03*
D12*
X126365000Y-102076200D03*
X120015000Y-104616200D03*
D10*
X118745000Y-107156200D03*
D11*
X123825000Y-107156200D03*
D13*
X116375000Y-104576200D03*
X129975000Y-102036200D03*
D16*
X76806300Y-92868700D03*
X80356300Y-92868700D03*
X232756300Y-92868700D03*
X229206300Y-92868700D03*
D24*
X52464000Y-21721500D03*
X49924000Y-21721500D03*
X47384000Y-21721500D03*
X44844000Y-21721500D03*
X42304000Y-21721500D03*
X39764000Y-21721500D03*
X37224000Y-21721500D03*
X34684000Y-21721500D03*
X32144000Y-21721500D03*
X29604000Y-21721500D03*
X27064000Y-21721500D03*
X24524000Y-21721500D03*
X24524000Y-36941500D03*
X27064000Y-36941500D03*
X29604000Y-36941500D03*
X32144000Y-36941500D03*
X34684000Y-36941500D03*
X37224000Y-36941500D03*
X39764000Y-36941500D03*
X42304000Y-36941500D03*
X44844000Y-36941500D03*
X47384000Y-36941500D03*
X49924000Y-36941500D03*
X52464000Y-36941500D03*
X55004000Y-36941500D03*
X55004000Y-21721500D03*
D16*
X242281300Y-35718700D03*
X238731300Y-35718700D03*
X153006300Y-92868700D03*
X156556300Y-92868700D03*
X275618800Y-54768700D03*
X272068800Y-54768700D03*
X153006300Y-54768700D03*
X156556300Y-54768700D03*
D10*
X90170000Y-107156200D03*
D12*
X97790000Y-102076200D03*
D11*
X95250000Y-107156200D03*
D10*
X100330000Y-107156200D03*
D12*
X91440000Y-104616200D03*
D13*
X87800000Y-104576200D03*
X101400000Y-102036200D03*
D10*
X23495000Y-107156200D03*
D12*
X24765000Y-104616200D03*
D10*
X33655000Y-107156200D03*
D11*
X28575000Y-107156200D03*
D12*
X31115000Y-102076200D03*
D13*
X21125000Y-104576200D03*
X34725000Y-102036200D03*
D12*
X176371300Y-23495000D03*
D11*
X173831300Y-28575000D03*
D12*
X170021300Y-26035000D03*
D18*
X176331300Y-21075000D03*
X171331300Y-21075000D03*
X173831300Y-21075000D03*
D19*
X180181300Y-28575000D03*
D20*
X168281300Y-28575000D03*
D21*
X167481300Y-28975000D03*
D20*
X179381300Y-28575000D03*
D22*
X179921300Y-23495000D03*
D18*
X176331300Y-35575000D03*
X171331300Y-35575000D03*
D23*
X166471300Y-26035000D03*
D16*
X28830800Y-34347300D03*
X32380800Y-34347300D03*
X44077400Y-34218700D03*
X47627400Y-34218700D03*
M02*
